<?xml version="1.0" standalone="yes"?>
<svg width="797" height="228">
<path style="fill:#ffffff; stroke:none;" d="M0 0L0 228L797 228L797 0L0 0z"/>
<path style="fill:#eab6ba; stroke:none;" d="M345 34L345 35L350 35L345 34z"/>
<path style="fill:#c8707e; stroke:none;" d="M350 34L350 35L353 35L350 34z"/>
<path style="fill:#cb1e00; stroke:none;" d="M248 43L252 46L250 48L265.326 59.3202L302 56.1698L374 51C365.613 33.0158 351.278 35.1701 335 35.9614C306.017 37.3703 277.032 43 248 43z"/>
<path style="fill:#e9c2c7; stroke:none;" d="M334 35L334 36L338 36L334 35z"/>
<path style="fill:#d4817d; stroke:none;" d="M338.667 35.3333L339.333 35.6667L338.667 35.3333z"/>
<path style="fill:#e8c6c4; stroke:none;" d="M321 36L321 37L328 37L321 36z"/>
<path style="fill:#dc8b88; stroke:none;" d="M360 36L361 37L360 36z"/>
<path style="fill:#e5c1c5; stroke:none;" d="M310 37L310 38L315 38L310 37z"/>
<path style="fill:#d6837d; stroke:none;" d="M315.667 37.3333L316.333 37.6667L315.667 37.3333z"/>
<path style="fill:#db8d89; stroke:none;" d="M361 37L362 38L361 37z"/>
<path style="fill:#8b95b0; stroke:none;" d="M107 38L107 39L114 39L107 38z"/>
<path style="fill:#3c5194; stroke:none;" d="M114 38.4637C98.9981 39.7766 85.741 42.7739 73 51.358C34.7305 77.1417 29.6179 135.165 62.2855 167.714C79.3131 184.679 102.435 191.186 126 188.829C203.828 181.048 213.628 66.7985 141 42.3557C132.868 39.6189 122.59 37.7119 114 38.4637z"/>
<path style="fill:#8c96b1; stroke:none;" d="M118 38L118 39L123 39L118 38z"/>
<path style="fill:#e3c4c1; stroke:none;" d="M298 38L298 39L304 39L298 38z"/>
<path style="fill:#ca7976; stroke:none;" d="M304.667 38.3333L305.333 38.6667L304.667 38.3333z"/>
<path style="fill:#d38480; stroke:none;" d="M362 38L363 39L362 38z"/>
<path style="fill:#b6b8cd; stroke:none;" d="M100.667 39.3333L101.333 39.6667L100.667 39.3333z"/>
<path style="fill:#9094b1; stroke:none;" d="M128.667 39.3333L129.333 39.6667L128.667 39.3333z"/>
<path style="fill:#e1ceca; stroke:none;" d="M286 39L286 40L294 40L286 39z"/>
<path style="fill:#d5817f; stroke:none;" d="M363 39L364 40L363 39z"/>
<path style="fill:#9ca8be; stroke:none;" d="M96.6667 40.3333L97.3333 40.6667L96.6667 40.3333z"/>
<path style="fill:#e6c4c2; stroke:none;" d="M275 40L275 41L283 41L275 40z"/>
<path style="fill:#d1d8e8; stroke:none;" d="M106 43L109 45L110 45L110 42L113 43C110.9 40.5966 108.1 40.5966 106 43z"/>
<path style="fill:#8f98bf; stroke:none;" d="M113 41L112 44L113 41z"/>
<path style="fill:#dbd1e9; stroke:none;" d="M122 41L122 42L128 45L122 41z"/>
<path style="fill:#e3c0be; stroke:none;" d="M264 41L264 42L269 42L264 41z"/>
<path style="fill:#d27b84; stroke:none;" d="M269 41L269 42L272 42L269 41z"/>
<path style="fill:#d5e1df; stroke:none;" d="M100 42L104 49L104 42L100 42z"/>
<path style="fill:#fffff4; stroke:none;" d="M107 42L107 51C110.363 51 113.204 51.7159 114 48L113 48L110 50L107 42z"/>
<path style="fill:#9c97bf; stroke:none;" d="M110.667 42.3333L111.333 42.6667L110.667 42.3333z"/>
<path style="fill:#fffbff; stroke:none;" d="M121 42L125 51L128 50L121 42z"/>
<path style="fill:#e4bcc4; stroke:none;" d="M253 42L253 43L258 43L253 42z"/>
<path style="fill:#cb6e69; stroke:none;" d="M258.667 42.3333L259.333 42.6667L258.667 42.3333z"/>
<path style="fill:#b4b6c3; stroke:none;" d="M107 43L107 50L108 50L107 43z"/>
<path style="fill:#3c508b; stroke:none;" d="M110 43L110 45L112 43L110 43z"/>
<path style="fill:#949eb7; stroke:none;" d="M134.667 43.3333L135.333 43.6667L134.667 43.3333z"/>
<path style="fill:#c58a7a; stroke:none;" d="M246.667 43.3333L247.333 43.6667L246.667 43.3333z"/>
<path style="fill:#fbfff9; stroke:none;" d="M94 44L99 53L97 48L105 52C102.664 47.6662 98.7534 45.127 94 44z"/>
<path style="fill:#bfb9e7; stroke:none;" d="M111 44L110 47L111 44z"/>
<path style="fill:#f9f6f1; stroke:none;" d="M133 44L128 52L131 53L134 50L137 54L136 44L133 44z"/>
<path style="fill:#ae1102; stroke:none;" d="M243 48L246 47L247 54L250 53C252.223 59.4662 257.52 62.4132 264 60C261.272 54.4681 255.591 50.3269 250 48L252 46C247.927 44.5625 245.29 43.8918 243 48z"/>
<path style="fill:#fefff7; stroke:none;" d="M90 45L87 47L91 56L94 55L90 45z"/>
<path style="fill:#8b8ea1; stroke:none;" d="M112 45L111 48L114 48L112 45z"/>
<path style="fill:#c77d7e; stroke:none;" d="M243 45L244 46L243 45z"/>
<path style="fill:#a3a9c1; stroke:none;" d="M95.3333 46.6667L95.6667 47.3333L95.3333 46.6667z"/>
<path style="fill:#f8fdf9; stroke:none;" d="M141 46L138 55L142 56C142.43 52.7132 145.04 53.0497 148 53C147.299 48.5647 145.353 46.8887 141 46z"/>
<path style="fill:#b9827b; stroke:none;" d="M242 46L243 47L242 46z"/>
<path style="fill:#444b93; stroke:none;" d="M110 47L113 50L110 47z"/>
<path style="fill:#3d5581; stroke:none;" d="M133 47L132 49L134 49L133 47z"/>
<path style="fill:#8c0000; stroke:none;" d="M242 47C238.632 58.3957 239.496 75.3215 246 85L241 85C241 98.965 236.816 119.869 246 131L241 131C241 150.939 238.93 164.272 257 177L257 147L282 145C276.778 136.647 265.384 140.994 257 141L257 101L281 99C275.982 90.8633 264.962 94.6581 257 95L259 61L250 53L247 54L246 47L242 47z"/>
<path style="fill:#a8accf; stroke:none;" d="M83 48L84 51L85 51L85 48L83 48z"/>
<path style="fill:#939dc0; stroke:none;" d="M97 48L97 50L99 48L97 48z"/>
<path style="fill:#8d94b0; stroke:none;" d="M114 48L114 51L115 51L114 48z"/>
<path style="fill:#bcc7e3; stroke:none;" d="M120 48L126 52L126 51L120 48z"/>
<path style="fill:#474d97; stroke:none;" d="M144 48L143 52L144 48z"/>
<path style="fill:#bdb0cc; stroke:none;" d="M81 49L81 52L82 52L81 49z"/>
<path style="fill:#fff9fd; stroke:none;" d="M82 49L82 54L89 57L82 49z"/>
<path style="fill:#acb6c0; stroke:none;" d="M136 49L136 53L137 53L136 49z"/>
<path style="fill:#fbfffc; stroke:none;" d="M151 50L146 59L150 61C150.928 57.0347 154.781 53.007 151 50z"/>
<path style="fill:#ab7b7b; stroke:none;" d="M240 50L240 79L241 79L240 50z"/>
<path style="fill:#ea4543; stroke:none;" d="M257 95L282 93C282.193 89.4802 282.712 85.9455 286.109 84.0278C290.319 81.6507 297.283 82.3027 302 81.831C313.573 80.6739 325.364 79.0232 337 79C344.46 78.9851 353.24 75.9585 354 86L379 84C379 76.5782 382.355 57.8324 376.566 52.4074C371.947 48.0779 357.006 51.8675 351 52.0147C328.855 52.5572 306.019 55.4778 284 57.9498C277.067 58.7282 264.849 57.2596 259.573 62.5718C253.594 68.5908 257 87.0128 257 95z"/>
<path style="fill:#b1b9ce; stroke:none;" d="M96 51L99 54L99 53L96 51z"/>
<path style="fill:#919bbf; stroke:none;" d="M107 51L107 52L110 52L107 51z"/>
<path style="fill:#929acb; stroke:none;" d="M133.333 52.6667L133.667 53.3333L133.333 52.6667z"/>
<path style="fill:#f7fdfb; stroke:none;" d="M74 54L84 60L84 56L74 54z"/>
<path style="fill:#d0cbd2; stroke:none;" d="M83 53L81 57L85 54L83 53z"/>
<path style="fill:#8d9aba; stroke:none;" d="M106.667 53.3333L107.333 53.6667L106.667 53.3333z"/>
<path style="fill:#ffffff; stroke:none;" d="M168 82C159.986 89.0746 148.982 96.0123 139 99L139 100C150.223 99.1131 159.725 92.0257 169 86L170 92C164.262 93.658 160.379 96.4312 158 102L172 97L173 102L145 108L145 109C152.125 112.428 155.137 108.524 162 107.711C167.448 107.067 169.684 110.384 175 107C171.041 121.986 148.337 113.547 138 111L136.746 124.905L161 150L149.104 142.582L134 128C137.471 139.39 156.004 146.017 156 158L145 148L149 163C142.582 161.952 143.787 157.304 144 152L139 153L144 166L137 168C138.284 161.324 136.419 153.094 130 150C128.577 158.637 139.367 164.843 130 172L124 167L126 155C119.744 160.7 126.746 171.601 118 173L116 163L115 163C112.745 169.451 110.053 172.972 103 171C104.307 165.9 108.164 161.917 109.667 157C110.892 152.99 108.222 148.862 109.5 145C110.608 141.654 118.882 133.482 112 132C112.219 136.906 109.181 139.557 107.702 144C104.406 153.902 106.683 163.412 96 170C100.506 158.476 103.429 141.214 111.214 131.498C113.83 128.233 117.624 129.348 120.985 127.552C128.111 123.745 130.075 116.315 131 109L124 111L125 107C121.598 107.674 117.98 111.919 123 113L122 118C120.214 118 105.585 118.178 110.361 113.361C111.923 111.786 114.842 113.303 113 115L113 116L119 116L119 102L120 102L121 102C129.932 112.38 130.684 94.8444 132 90L125 94L132 80L120.726 91.8681L108 92L97 58L101 65L102 65L105 55C111.241 59.9012 114.579 72.2048 115 80L116 80C116 75.0176 111.424 61.0493 114.023 57.466C117.392 52.8216 118.993 73.5898 119 76L125 56C129.91 60.8089 126.809 66.9937 126 73C129.887 72.1671 131.173 62.0169 132 58L134 58C136.678 64.0799 135.759 66.8305 134 73L145 63L146 64L138 81L149 66C159.478 72.492 134.512 87.7824 132 95L147.225 80.3935L159 73C153.533 83.8982 136.74 89.4504 135 102L136 102C141.859 94.4916 156.838 82.6595 166 80C152.73 50.2267 107.429 46.9117 83 62.4359C55.4209 79.962 47.7562 115.734 62.7816 144C81.1341 178.525 131.3 184.314 158.829 157.711C179.305 137.924 181.998 105.984 168 82z"/>
<path style="fill:#969db9; stroke:none;" d="M123 53L123 54L126 54L123 53z"/>
<path style="fill:#b0b6c6; stroke:none;" d="M143 53L143 54L146 54L143 53z"/>
<path style="fill:#afb8c7; stroke:none;" d="M128.667 54.3333L129.333 54.6667L128.667 54.3333z"/>
<path style="fill:#fcfff6; stroke:none;" d="M157 54L151 62L159 64L159 63L156 64L158 57L162 59L157 54z"/>
<path style="fill:#b8b5d0; stroke:none;" d="M105.667 55.3333L106.333 55.6667L105.667 55.3333z"/>
<path style="fill:#3c5396; stroke:none;" d="M115 91L117 91L120 79L121 79L118 93C128.97 91.1869 139.655 67.3172 134 58L132 58L126 73C127.106 67.6363 130.181 59.9443 125 56L126 59C117.634 63.1452 124.238 71.9498 119 78C118.809 75.299 118.64 53.5766 114.545 56.1759C112.214 57.6553 113.234 61.8884 113.76 64C116.139 73.5541 115.027 81.3122 115 91z"/>
<path style="fill:#cad1e3; stroke:none;" d="M71 56L69 59C71.7389 61.1025 74.499 63.4711 71 66L71 67C78.6528 66.6471 73.872 59.5841 71 56z"/>
<path style="fill:#d4cdd5; stroke:none;" d="M76 56L81 62L79 60L80 57L76 56z"/>
<path style="fill:#384f92; stroke:none;" d="M113 92C115.005 81.2056 113.109 75.2836 111.145 65C110.658 62.4508 109.629 55.4007 105.39 56.7516C102.523 57.6655 102.877 62.7184 103.109 65C103.644 70.2667 107.786 73.2541 109.411 78C111.081 82.8736 108.102 88.8243 113 92z"/>
<path style="fill:#edd9da; stroke:none;" d="M379 56L379 84L380 84L379 56z"/>
<path style="fill:#8fa2c3; stroke:none;" d="M125.333 57.6667L125.667 58.3333L125.333 57.6667z"/>
<path style="fill:#8391b8; stroke:none;" d="M127.333 57.6667L127.667 58.3333L127.333 57.6667z"/>
<path style="fill:#3e4999; stroke:none;" d="M157 59L160 57L157 59z"/>
<path style="fill:#8d98ac; stroke:none;" d="M162.333 57.6667L162.667 58.3333L162.333 57.6667z"/>
<path style="fill:#3f5497; stroke:none;" d="M97 58L108 92L109 92C108.607 80.6872 104.337 66.8566 97 58z"/>
<path style="fill:#b1bacb; stroke:none;" d="M157 62L162 59C158.992 58.7129 157.866 59.0327 157 62z"/>
<path style="fill:#fffbf8; stroke:none;" d="M66 60L64 63L73 68L73 67L66 60z"/>
<path style="fill:#d3d8eb; stroke:none;" d="M102 60L102 68L103 68L102 60z"/>
<path style="fill:#f9fafc; stroke:none;" d="M165 60L160 69L164 65L164 73L170 67L166 69L165 60z"/>
<path style="fill:#8088b6; stroke:none;" d="M89.6667 61.3333L90.3333 61.6667L89.6667 61.3333z"/>
<path style="fill:#8389b9; stroke:none;" d="M78.6667 62.3333L79.3333 62.6667L78.6667 62.3333z"/>
<path style="fill:#898dbc; stroke:none;" d="M88 62L88 66L89 66L88 62z"/>
<path style="fill:#3d5595; stroke:none;" d="M89 62L103 92L106 92C105.56 82.3706 98.9822 65.1212 89 62z"/>
<path style="fill:#3e5098; stroke:none;" d="M125 94C135.294 90.9789 141.906 73.0067 146 64L145 63C137.08 66.771 125.647 85.4166 125 94z"/>
<path style="fill:#9da7b3; stroke:none;" d="M166 64L166 67L167 67L166 64z"/>
<path style="fill:#96a2ba; stroke:none;" d="M129.333 65.6667L129.667 66.3333L129.333 65.6667z"/>
<path style="fill:#b2aad9; stroke:none;" d="M156.667 65.3333L157.333 65.6667L156.667 65.3333z"/>
<path style="fill:#c0c9c6; stroke:none;" d="M169 65L172 68L169 65z"/>
<path style="fill:#939dc1; stroke:none;" d="M111.333 66.6667L111.667 67.3333L111.333 66.6667z"/>
<path style="fill:#8696a3; stroke:none;" d="M149.667 66.3333L150.333 66.6667L149.667 66.3333z"/>
<path style="fill:#9dabc8; stroke:none;" d="M158 66L158 68L160 66L158 66z"/>
<path style="fill:#bec6d9; stroke:none;" d="M59 67L61 69L61 67L59 67z"/>
<path style="fill:#3b4d95; stroke:none;" d="M130 96L131 96C137.349 86.0993 151.955 79.6142 152 67C143.942 68.3624 131.804 88.3248 130 96z"/>
<path style="fill:#868aa7; stroke:none;" d="M152 67L152 72L153 72L152 67z"/>
<path style="fill:#fffdef; stroke:none;" d="M58 69L65 76C65.8894 71.5837 61.9894 69.1776 58 69z"/>
<path style="fill:#3e5196; stroke:none;" d="M79 68L95 91L94 91C91.045 85.3201 80.0681 73.7452 74 72C75.371 84.6228 89.1971 87.9291 96 97C86.3264 90.9503 79.809 83.5915 68 82C70.9114 91.3329 98.7303 104.155 105 95L79 68z"/>
<path style="fill:#a3aeca; stroke:none;" d="M102 68L105 73L102 68z"/>
<path style="fill:#da7b75; stroke:none;" d="M698 68L698 137L699 137L699 69L706 69L698 68z"/>
<path style="fill:#ebc1c2; stroke:none;" d="M706 68L706 112L707 112C708.778 101.492 710.115 77.8063 706 68z"/>
<path style="fill:#96a4bf; stroke:none;" d="M67 69L67 72L68 72L69 69L67 69z"/>
<path style="fill:#aebfb5; stroke:none;" d="M78.3333 69.6667L78.6667 70.3333L78.3333 69.6667z"/>
<path style="fill:#bcd1d4; stroke:none;" d="M163 69L163 73L164 73L163 69z"/>
<path style="fill:#fcfbf9; stroke:none;" d="M172 70L174 73L167 76L168 80L170 80L176 75L175 78L178 77L174 69L172 70z"/>
<path style="fill:#cb1d02; stroke:none;" d="M699 69L699 137L706 137C706 129.058 704.794 121.522 710 115C713.995 124.594 717.332 136.959 729 137L716.424 109L727 90C715.857 90.0394 710.909 102.66 707 112L706 112L706 69L699 69z"/>
<path style="fill:#b3bdc6; stroke:none;" d="M58.6667 70.3333L59.3333 70.6667L58.6667 70.3333z"/>
<path style="fill:#d3e2df; stroke:none;" d="M68 70L66 75L70 70L68 70z"/>
<path style="fill:#c3c1d6; stroke:none;" d="M118 70L118 74L119 74L118 70z"/>
<path style="fill:#b3c0d3; stroke:none;" d="M121.333 70.6667L121.667 71.3333L121.333 70.6667z"/>
<path style="fill:#9f9ab8; stroke:none;" d="M171 70L174 72L174 71L171 70z"/>
<path style="fill:#fffcff; stroke:none;" d="M105 72L108 82L109 82L105 72z"/>
<path style="fill:#cbd9dc; stroke:none;" d="M133 73L131 80L135 73L133 73z"/>
<path style="fill:#495492; stroke:none;" d="M157 73L154 76L154 77L159 73L157 73z"/>
<path style="fill:#aba7c8; stroke:none;" d="M64.3333 74.6667L64.6667 75.3333L64.3333 74.6667z"/>
<path style="fill:#a8b0bd; stroke:none;" d="M109 76L109 90L110 90L109 76z"/>
<path style="fill:#6d7dbb; stroke:none;" d="M119 76L119 78L121 78L121 76L119 76z"/>
<path style="fill:#d5dedd; stroke:none;" d="M52 80L59 81L53 77L52 80z"/>
<path style="fill:#3d5196; stroke:none;" d="M121 102L120 102L117 104L120 111L121 107L125 107L124 111L131 109C130.889 121.227 122.661 126.565 112 129L112 131C116.568 136.006 111.58 138.651 110.314 144C109.385 147.925 110.641 152.104 109.441 156C107.81 161.292 104.06 165.438 103 171C122.02 175.461 110.43 147.589 118 139L117 146L118 146L120 139C124.592 148.876 127.385 157.106 124 167L132.436 169.825L133.362 161L128.1 145L127 131L142 148L145 146L156 158C155.267 144.618 137.29 139.974 134 128L159 148C157.601 141.13 152.88 141.357 148.133 137.49C143.005 133.313 142.441 127.995 135 127L138 111C146.17 113.437 172.906 122.047 174 108L162 107.38L152 110.682L138 109L138 108C150.47 107.473 161.223 106.916 173 102C166.198 94.8829 146.129 107.405 136 105L136 104C150.37 103.881 157.757 97.1358 170 92L169 87L138 101C145.396 95.0958 165.159 90.821 166 80C157.645 81.3413 139.941 94.5821 136 102L135 102L154 77C146.42 78.3738 137.527 89.5322 132.576 95.4398C128.784 99.965 129.045 108.181 121 102z"/>
<path style="fill:#aeb0c7; stroke:none;" d="M154 77L154 78L157 78L154 77z"/>
<path style="fill:#8c0000; stroke:none;" d="M337 79C337 93.0612 333.702 110.235 342 122L337 123L336 132L353 146L353 138L378 137C373.688 128.053 361.187 131.965 353 133L353 93L378 91C373.601 82.1084 361.07 86.8334 353 87C352.959 75.5331 345.938 78.9753 337 79z"/>
<path style="fill:#e3acb1; stroke:none;" d="M612 78L613 89L614 89L612 78z"/>
<path style="fill:#9da3bb; stroke:none;" d="M120 79L115 92L118 93L120 79z"/>
<path style="fill:#dddfeb; stroke:none;" d="M137 79L131 90C134.897 87.8997 139.239 83.537 137 79z"/>
<path style="fill:#f8fff3; stroke:none;" d="M171 83L172 86L181 80L171 83z"/>
<path style="fill:#cf7d72; stroke:none;" d="M241 79L242 80L241 79z"/>
<path style="fill:#f6c2c6; stroke:none;" d="M328 79L328 80L334 80L328 79z"/>
<path style="fill:#ffffff; stroke:none;" d="M283 93L277 93C284.909 106.917 283 120.879 283 137L322 133.285L334.682 131.397L337 122L342 122C333.236 109.346 336 94.065 336 79L298 82.5756L285.318 84.0278L283 93z"/>
<path style="fill:#ede7e7; stroke:none;" d="M336 79L336 116L337 116C337 105.351 340.111 88.7979 336 79z"/>
<path style="fill:#cb1d02; stroke:none;" d="M599 90L599 94C613.118 95.077 602.475 123.629 607.318 132.956C610.695 139.461 621.352 140.321 622 132C607.81 130.927 613 104.251 613 94L623 94L623 90L613 90L613 79L599 90z"/>
<path style="fill:#8e9ab4; stroke:none;" d="M115 80L114 86L115 86L115 80z"/>
<path style="fill:#96a9b7; stroke:none;" d="M166 80L166 84L167 84L166 80z"/>
<path style="fill:#b88a8c; stroke:none;" d="M242 80L243 81L242 80z"/>
<path style="fill:#ecb5ae; stroke:none;" d="M315 80L315 81L322 81L315 80z"/>
<path style="fill:#af1d1d; stroke:none;" d="M353 80L353 87L360 87L360 86L354 86L353 80z"/>
<path style="fill:#ca584e; stroke:none;" d="M606.667 80.3333L607.333 80.6667L606.667 80.3333z"/>
<path style="fill:#fdfcff; stroke:none;" d="M49 86L59 86L53 85L53 84L61 81C56.452 81.5873 51.5363 81.8537 49 86z"/>
<path style="fill:#ccdadd; stroke:none;" d="M86 82L94 91L95 91L88 81L86 82z"/>
<path style="fill:#ab9182; stroke:none;" d="M243 81L244 82L243 81z"/>
<path style="fill:#e8c8bd; stroke:none;" d="M304 81L304 82L312 82L304 81z"/>
<path style="fill:#db7c78; stroke:none;" d="M605 81L605 89L606 89L605 81z"/>
<path style="fill:#a09dc8; stroke:none;" d="M51.6667 82.3333L52.3333 82.6667L51.6667 82.3333z"/>
<path style="fill:#98a1be; stroke:none;" d="M67.3333 82.6667L67.6667 83.3333L67.3333 82.6667z"/>
<path style="fill:#b8bed6; stroke:none;" d="M71.6667 82.3333L72.3333 82.6667L71.6667 82.3333z"/>
<path style="fill:#b7bfcc; stroke:none;" d="M100 82L100 86L101 86L100 82z"/>
<path style="fill:#b8878a; stroke:none;" d="M244 82L245 83L244 82z"/>
<path style="fill:#efc5c7; stroke:none;" d="M294 82L294 83L299 83L294 82z"/>
<path style="fill:#bcced2; stroke:none;" d="M57.6667 83.3333L58.3333 83.6667L57.6667 83.3333z"/>
<path style="fill:#9b4745; stroke:none;" d="M245.333 83.6667L245.667 84.3333L245.333 83.6667z"/>
<path style="fill:#8d9bb8; stroke:none;" d="M53 84L55 86L55 84L53 84z"/>
<path style="fill:#c4d3d0; stroke:none;" d="M78 84L78 85L83 86L78 84z"/>
<path style="fill:#b58c8a; stroke:none;" d="M240 84L240 85L245 85L240 84z"/>
<path style="fill:#e78989; stroke:none;" d="M376 84L376 85L379 85L376 84z"/>
<path style="fill:#888cb1; stroke:none;" d="M173 85L173 89L184 88L184 87L173 85z"/>
<path style="fill:#a35e61; stroke:none;" d="M240 85L240 125L241 125C241 113.566 244.411 95.512 240 85z"/>
<path style="fill:#e4eef8; stroke:none;" d="M82 86L92 93L82 86z"/>
<path style="fill:#bcc2d0; stroke:none;" d="M114 86L113 91L114 86z"/>
<path style="fill:#bec8d4; stroke:none;" d="M162.667 86.3333L163.333 86.6667L162.667 86.3333z"/>
<path style="fill:#b3bbd2; stroke:none;" d="M167.667 86.3333L168.333 86.6667L167.667 86.3333z"/>
<path style="fill:#fababa; stroke:none;" d="M282 87L282 93L283 93L282 87z"/>
<path style="fill:#d46c69; stroke:none;" d="M733 87L733 88L737 88L737 95L738 95L741 88L733 87z"/>
<path style="fill:#e5a29a; stroke:none;" d="M742 87L742 95L744 95L744 91L745 91L746 95L748 95L749 91L748 91L747 93L742 87z"/>
<path style="fill:#c55c58; stroke:none;" d="M743 87L745 90L743 87z"/>
<path style="fill:#d0432f; stroke:none;" d="M750 87L751 95L752 95L750 87z"/>
<path style="fill:#fcffff; stroke:none;" d="M47 88L47 92L56 95L47 88z"/>
<path style="fill:#fbfffb; stroke:none;" d="M174 90L177 89L176 96L185 88L174 90z"/>
<path style="fill:#bbbbbb; stroke:none;" d="M423 88L423 89L431 89L423 88z"/>
<path style="fill:#bfbfbf; stroke:none;" d="M466 88L466 89L471 89L466 88z"/>
<path style="fill:#bababa; stroke:none;" d="M505 88L505 89L511 89L505 88z"/>
<path style="fill:#c0c0c0; stroke:none;" d="M549 88L549 89L554 89L549 88z"/>
<path style="fill:#e0afb2; stroke:none;" d="M583 88L583 89L589 89L583 88z"/>
<path style="fill:#e6b4b3; stroke:none;" d="M638 88L638 89L645 89L638 88z"/>
<path style="fill:#f5ccca; stroke:none;" d="M684 88L684 89L689 89L684 88z"/>
<path style="fill:#e8b5b4; stroke:none;" d="M736 88L736 95L737 95L736 88z"/>
<path style="fill:#3c4e9a; stroke:none;" d="M62 89C64.0322 101.568 86.8708 103.504 97 105L97 106L89 105L89 106C93.6063 107.097 99.2152 108.378 101 103L62 89z"/>
<path style="fill:#a9bbbf; stroke:none;" d="M107.333 89.6667L107.667 90.3333L107.333 89.6667z"/>
<path style="fill:#9497c0; stroke:none;" d="M179 89L179 91L181 89L179 89z"/>
<path style="fill:#6e6e6e; stroke:none;" d="M421 89.7423C401.486 97.2094 406.963 146.687 432 137.106C452.512 129.258 446.278 80.0698 421 89.7423M450 89L451 157L458 157L458 133C460.19 134.747 462.238 136.811 465.015 137.567C492.212 144.976 490.725 79.4434 464.015 89.7415C461.273 90.7985 459.21 93.1539 457 95L457 89L450 89z"/>
<path style="fill:#c9c9c9; stroke:none;" d="M457 89L459 95L457 89z"/>
<path style="fill:#6e6e6e; stroke:none;" d="M522 136L521 131C507.727 132.047 499.69 129.098 499 114L524 114C524 107.453 524.071 100.88 520.468 95.0934C514.948 86.2304 502.373 87.5432 496.394 95.0154C488.42 104.98 488.66 127.753 500.015 135.272C506.548 139.598 514.978 137.817 522 136M532 89L533 137L540 137C540 126.771 538.407 115.035 540.479 105C541.306 100.998 544.067 95.2016 549.003 95.5463C553.716 95.8754 555.863 101.031 556.556 105C558.341 115.222 557 126.637 557 137L564 137C564 124.995 566.961 108.467 563.347 97.0008C559.543 84.9308 545.873 88.5033 539 95L539 89L532 89z"/>
<path style="fill:#cf1700; stroke:none;" d="M593 96L595 91C584.496 86.5678 565.857 92.415 573.179 106.999C576.421 113.456 589.85 117.644 588.458 125.985C586.952 135.002 578.417 129.704 573.438 131.696C570.47 132.883 571.97 136.004 574.152 136.968C585.413 141.938 598.941 132.354 595.566 120C593.324 111.792 583.292 110.223 580.072 102.997C578.043 98.4446 582.565 94.2591 586.996 94.5085C588.99 94.6207 591.08 95.4934 593 96z"/>
<path style="fill:#d35c54; stroke:none;" d="M599 89L599 90L605 90L599 89z"/>
<path style="fill:#d55f55; stroke:none;" d="M613 89L613 90L623 90L613 89z"/>
<path style="fill:#d6929f; stroke:none;" d="M623 89L623 95L624 95L623 89z"/>
<path style="fill:#d76f66; stroke:none;" d="M635.667 89.3333L636.333 89.6667L635.667 89.3333z"/>
<path style="fill:#ca2000; stroke:none;" d="M631 91L632 96C642.1 93.6913 648.96 95.182 650 107C643.347 107.529 635.092 108.628 630.649 114.185C625.005 121.244 626.048 134.878 636.001 137.566C641.777 139.126 646.393 135.936 651 133L651 137L658 137C656.163 122.465 664.093 88.7145 642 89.0185C638.188 89.071 634.682 90.1584 631 91z"/>
<path style="fill:#cf524e; stroke:none;" d="M679.667 89.3333L680.333 89.6667L679.667 89.3333z"/>
<path style="fill:#ca1e00; stroke:none;" d="M692 137L692 131C673.674 134.39 665.911 108.77 679.213 97.5725C682.845 94.5151 687.565 95.0005 692 95L693 90C667.877 84.0186 653.366 121.447 674.015 135.121C679.624 138.835 685.768 137.788 692 137z"/>
<path style="fill:#d1655b; stroke:none;" d="M720 89L720 90L728 91L720 89z"/>
<path style="fill:#d68479; stroke:none;" d="M749.333 89.6667L749.667 90.3333L749.333 89.6667z"/>
<path style="fill:#e92e29; stroke:none;" d="M378 90L354 93L354 133L379 131C379 119.304 382.511 100.75 378 90z"/>
<path style="fill:#d5d5d5; stroke:none;" d="M539 90L539 95L540 95L539 90z"/>
<path style="fill:#d65c57; stroke:none;" d="M632.667 90.3333L633.333 90.6667L632.667 90.3333z"/>
<path style="fill:#d2dcd3; stroke:none;" d="M54 91L54 92L56 94L57 94L54 91z"/>
<path style="fill:#a5b5c5; stroke:none;" d="M95 91L97 94L95 91z"/>
<path style="fill:#8f99b2; stroke:none;" d="M157.667 91.3333L158.333 91.6667L157.667 91.3333z"/>
<path style="fill:#e37e82; stroke:none;" d="M675 91L676 92L675 91z"/>
<path style="fill:#b8c5d6; stroke:none;" d="M103.667 92.3333L104.333 92.6667L103.667 92.3333z"/>
<path style="fill:#a9a7cf; stroke:none;" d="M175 92L175 94L177 92L175 92z"/>
<path style="fill:#e28983; stroke:none;" d="M575 92L576 93L575 92z"/>
<path style="fill:#de8f94; stroke:none;" d="M653 92L654 93L653 92z"/>
<path style="fill:#cf8c83; stroke:none;" d="M726 92L727 93L726 92z"/>
<path style="fill:#99a7c4; stroke:none;" d="M83.6667 93.3333L84.3333 93.6667L83.6667 93.3333z"/>
<path style="fill:#b1bdcd; stroke:none;" d="M90 93L90 94L96 97L90 93z"/>
<path style="fill:#ac0e0b; stroke:none;" d="M353 93L353 133L354 133C354 121.566 357.411 103.512 353 93z"/>
<path style="fill:#ababab; stroke:none;" d="M450 93L450 157L451 157L451 113L450 93z"/>
<path style="fill:#df968f; stroke:none;" d="M574 93L575 94L574 93z"/>
<path style="fill:#e19186; stroke:none;" d="M717 93L718 94L717 93z"/>
<path style="fill:#abadc2; stroke:none;" d="M42.3333 94.6667L42.6667 95.3333L42.3333 94.6667z"/>
<path style="fill:#c5c5c5; stroke:none;" d="M425 94L425 95L428 95L425 94z"/>
<path style="fill:#cbcbcb; stroke:none;" d="M506 94L506 95L510 95L506 94z"/>
<path style="fill:#e0b7b5; stroke:none;" d="M583 94L583 95L589 95L583 94z"/>
<path style="fill:#cc5149; stroke:none;" d="M599 94L599 95L605 95L599 94z"/>
<path style="fill:#cd544c; stroke:none;" d="M613 94L613 95L623 95L613 94z"/>
<path style="fill:#e7b3a8; stroke:none;" d="M637 94L637 95L644 95L637 94z"/>
<path style="fill:#bac0ce; stroke:none;" d="M79.6667 95.3333L80.3333 95.6667L79.6667 95.3333z"/>
<path style="fill:#9db7dc; stroke:none;" d="M131.333 95.6667L131.667 96.3333L131.333 95.6667z"/>
<path style="fill:#7b8bbf; stroke:none;" d="M189.333 95.6667L189.667 96.3333L189.333 95.6667z"/>
<path style="fill:#b97375; stroke:none;" d="M278 95L279 96L278 95z"/>
<path style="fill:#ffffff; stroke:none;" d="M423.108 96.0285C415.545 100.205 416.799 118.054 419.059 124.999C420.565 129.63 424.765 133.802 429.892 130.971C437.113 126.984 436.496 108.806 434.347 102.001C432.871 97.3237 428.073 93.2869 423.108 96.0285M464.044 96.0432C456.613 99.7584 457.44 119.148 459.653 125.985C461.052 130.306 465.535 133.287 469.945 130.968C477.522 126.985 477.443 109.987 475.08 103.001C473.578 98.5568 469.235 93.4479 464.044 96.0432M500 108L516 108C515.659 91.9883 500.339 92.0802 500 108z"/>
<path style="fill:#a0a0a0; stroke:none;" d="M532 95L532 137L533 137C533 125.043 536.611 105.988 532 95z"/>
<path style="fill:#d67c7b; stroke:none;" d="M605 95L605 128L606 128L605 95z"/>
<path style="fill:#e3acb1; stroke:none;" d="M613 95L613 126L614 126L613 95z"/>
<path style="fill:#d8857f; stroke:none;" d="M655 95L656 96L655 95z"/>
<path style="fill:#db978e; stroke:none;" d="M690.667 95.3333L691.333 95.6667L690.667 95.3333z"/>
<path style="fill:#bac6d2; stroke:none;" d="M174.333 96.6667L174.667 97.3333L174.333 96.6667z"/>
<path style="fill:#cf6651; stroke:none;" d="M572.333 96.6667L572.667 97.3333L572.333 96.6667z"/>
<path style="fill:#b0b2c9; stroke:none;" d="M135.333 97.6667L135.667 98.3333L135.333 97.6667z"/>
<path style="fill:#a6adca; stroke:none;" d="M142 97L142 98L148 98L142 97z"/>
<path style="fill:#c7c6d6; stroke:none;" d="M171 97L173 101L171 97z"/>
<path style="fill:#b27877; stroke:none;" d="M280 97L281 98L280 97z"/>
<path style="fill:#d0615a; stroke:none;" d="M656.333 97.6667L656.667 98.3333L656.333 97.6667z"/>
<path style="fill:#bbc2dc; stroke:none;" d="M41 98L41 101L42 101L41 98z"/>
<path style="fill:#e92e29; stroke:none;" d="M281 98L257 101L257 141L280.593 138.972L282.001 129L281 98z"/>
<path style="fill:#d7957b; stroke:none;" d="M714 98L715 99L714 98z"/>
<path style="fill:#797dac; stroke:none;" d="M58 99L58 100L62 100L58 99z"/>
<path style="fill:#b4bdc2; stroke:none;" d="M96 99L96 100L99 100L96 99z"/>
<path style="fill:#d3ddd4; stroke:none;" d="M143 99L143 100L147 100L143 99z"/>
<path style="fill:#f0bfc2; stroke:none;" d="M282 99L282 137L283 137C283 126.089 286.211 109.036 282 99z"/>
<path style="fill:#eeaeae; stroke:none;" d="M571 99L571 104L572 104L571 99z"/>
<path style="fill:#f6fcff; stroke:none;" d="M48 100L50 102L50 100L48 100z"/>
<path style="fill:#3d5295; stroke:none;" d="M58 100L58 101C68.6703 107.227 77.1693 107.704 89 105L58 100z"/>
<path style="fill:#b3bad6; stroke:none;" d="M67.6667 100.333L68.3333 100.667L67.6667 100.333z"/>
<path style="fill:#a1afc9; stroke:none;" d="M138.667 100.333L139.333 100.667L138.667 100.333z"/>
<path style="fill:#ced2de; stroke:none;" d="M181 102L184 100L181 102z"/>
<path style="fill:#bbbbbb; stroke:none;" d="M564 100L564 137L556 137L556 138L565 138C565 127.089 568.211 110.036 564 100z"/>
<path style="fill:#dd9996; stroke:none;" d="M657 100L657 134L658 134L657 100z"/>
<path style="fill:#8892ad; stroke:none;" d="M76 101L76 102L81 102L76 101z"/>
<path style="fill:#feffff; stroke:none;" d="M136 104L136 105L157 103L136 104z"/>
<path style="fill:#b0b6c4; stroke:none;" d="M153 101L153 102L158 103L153 101z"/>
<path style="fill:#8f94bc; stroke:none;" d="M160.667 101.333L161.333 101.667L160.667 101.333z"/>
<path style="fill:#818caa; stroke:none;" d="M84 103L84 104L88 103L84 103z"/>
<path style="fill:#acb3c6; stroke:none;" d="M98 102L98 103L101 105C101.951 102.493 100.348 102.294 98 102z"/>
<path style="fill:#a5a5bf; stroke:none;" d="M119.333 102.667L119.667 103.333L119.333 102.667z"/>
<path style="fill:#b8b8b8; stroke:none;" d="M410.333 102.667L410.667 103.333L410.333 102.667z"/>
<path style="fill:#c8c8c8; stroke:none;" d="M483.333 102.667L483.667 103.333L483.333 102.667z"/>
<path style="fill:#e78789; stroke:none;" d="M649 102L649 107L650 107L649 102z"/>
<path style="fill:#dcdeea; stroke:none;" d="M87 103L87 104L97 106L87 103z"/>
<path style="fill:#9fa1b0; stroke:none;" d="M113.667 103.333L114.333 103.667L113.667 103.333z"/>
<path style="fill:#b6c0ca; stroke:none;" d="M143 103L143 104L146 104L143 103z"/>
<path style="fill:#bec0d5; stroke:none;" d="M150 103L150 104L156 104L150 103z"/>
<path style="fill:#c39194; stroke:none;" d="M711 103L712 104L711 103z"/>
<path style="fill:#3a4b91; stroke:none;" d="M106 108L114 107L114 108L111 111C120.173 109.407 111.372 99.4869 106 108z"/>
<path style="fill:#bfbfbf; stroke:none;" d="M458 104L458 123L459 123L458 104z"/>
<path style="fill:#b9b9b9; stroke:none;" d="M540 104L540 137L532 137L532 138L541 138L540 104z"/>
<path style="fill:#9d9d9d; stroke:none;" d="M556 104L556 137L557 137L556 104z"/>
<path style="fill:#8390ba; stroke:none;" d="M86 105L86 106L89 106L86 105z"/>
<path style="fill:#9fa5bd; stroke:none;" d="M117 105L117 108L118 108L117 105z"/>
<path style="fill:#808abd; stroke:none;" d="M191 105L191 118L192 118L191 105z"/>
<path style="fill:#b6b6b6; stroke:none;" d="M499 105L499 109L516 109L516 108C510.15 108 503.522 109.317 499 105z"/>
<path style="fill:#dc7a7b; stroke:none;" d="M717 105L718 106L717 105z"/>
<path style="fill:#838bb0; stroke:none;" d="M40 106L40 122L41 122L40 106z"/>
<path style="fill:#3b5496; stroke:none;" d="M58 106C54.8532 123.069 85.0782 108.515 92 115L58 122C62.2708 134.868 79.577 118.814 85 116.742C91.075 114.422 98.5452 117.651 100 109C94.3529 110.715 90.5824 108.868 85 109.145C75.3755 109.622 68.402 114.688 60 106L58 106z"/>
<path style="fill:#9495c1; stroke:none;" d="M105.333 106.667L105.667 107.333L105.333 106.667z"/>
<path style="fill:#a5a5a5; stroke:none;" d="M409 106L409 120L410 120L409 106z"/>
<path style="fill:#adadad; stroke:none;" d="M491 106L491 110L492 110L491 106z"/>
<path style="fill:#e1bbae; stroke:none;" d="M665.333 106.667L665.667 107.333L665.333 106.667z"/>
<path style="fill:#8d99c1; stroke:none;" d="M51.6667 107.333L52.3333 107.667L51.6667 107.333z"/>
<path style="fill:#92a2bb; stroke:none;" d="M72 107L72 108L81 108L72 107z"/>
<path style="fill:#b5bbd3; stroke:none;" d="M94 107L94 108L98 108L94 107z"/>
<path style="fill:#b3c7c8; stroke:none;" d="M110 107L110 108L114 108L110 107z"/>
<path style="fill:#8284b7; stroke:none;" d="M121.333 107.667L121.667 108.333L121.333 107.667z"/>
<path style="fill:#d3d8d4; stroke:none;" d="M138 108L138 109L148 108L138 108z"/>
<path style="fill:#797abb; stroke:none;" d="M174 107L174 110L175 110L174 107z"/>
<path style="fill:#afb6d0; stroke:none;" d="M185 107L185 108L188 108L185 107z"/>
<path style="fill:#c9c9c9; stroke:none;" d="M435 107L435 120L436 120L435 107z"/>
<path style="fill:#c99995; stroke:none;" d="M643 107L643 108L646 108L643 107z"/>
<path style="fill:#f4d7d3; stroke:none;" d="M673 107L673 120L674 120L673 107z"/>
<path style="fill:#c4cad6; stroke:none;" d="M45 108L45 109L52 109L51 112L53 108L45 108z"/>
<path style="fill:#a6aebb; stroke:none;" d="M61 108L61 109L65 109L61 108z"/>
<path style="fill:#9fa5bd; stroke:none;" d="M150 108L150 109L153 109L150 108z"/>
<path style="fill:#ccd4e1; stroke:none;" d="M179 111L183 108L179 111z"/>
<path style="fill:#fffffa; stroke:none;" d="M182 113L179 111C181.246 117.759 185.096 111.904 188 109L187 114L189 108C185.069 108.312 183.685 109.457 182 113z"/>
<path style="fill:#aeaeae; stroke:none;" d="M417 108L417 117L418 117L417 108z"/>
<path style="fill:#d8d8d8; stroke:none;" d="M484 108L484 117L485 117L484 108z"/>
<path style="fill:#dd8186; stroke:none;" d="M584 108L585 109L584 108z"/>
<path style="fill:#d76451; stroke:none;" d="M639.667 108.333L640.333 108.667L639.667 108.333z"/>
<path style="fill:#d67a6d; stroke:none;" d="M665 108L665 111L666 111L665 108z"/>
<path style="fill:#e99595; stroke:none;" d="M708 108L709 109L708 108z"/>
<path style="fill:#faf9f7; stroke:none;" d="M43 112L52 111C50.093 107.69 43.8583 107.995 43 112z"/>
<path style="fill:#748cae; stroke:none;" d="M118 109L118 114L119 114L118 109z"/>
<path style="fill:#bdbeda; stroke:none;" d="M186.667 109.333L187.333 109.667L186.667 109.333z"/>
<path style="fill:#c8c5d6; stroke:none;" d="M42 110L44 116L42 110z"/>
<path style="fill:#bebfdb; stroke:none;" d="M45 110L45 111L51 111L45 110z"/>
<path style="fill:#8e9bbd; stroke:none;" d="M189 110L189 115L190 115L189 110z"/>
<path style="fill:#e4837c; stroke:none;" d="M575 110L576 111L575 110z"/>
<path style="fill:#dc9293; stroke:none;" d="M576 111L577 112L576 111z"/>
<path style="fill:#e69194; stroke:none;" d="M633 111L634 112L633 111z"/>
<path style="fill:#94a3ba; stroke:none;" d="M72 112L72 113L76 113L72 112z"/>
<path style="fill:#979dab; stroke:none;" d="M110 112L110 113L114 113L110 112z"/>
<path style="fill:#405395; stroke:none;" d="M119 112L121 116L115 116L115 117L122 118L123 113L119 112z"/>
<path style="fill:#95a0b6; stroke:none;" d="M130 112L130 117L131 117L130 112z"/>
<path style="fill:#b5bbc9; stroke:none;" d="M145.667 112.333L146.333 112.667L145.667 112.333z"/>
<path style="fill:#e9bfc0; stroke:none;" d="M645 112L645 113L649 113L649 124L650 124L650 112L645 112z"/>
<path style="fill:#e29092; stroke:none;" d="M716 112L717 113L716 112z"/>
<path style="fill:#a3b4d2; stroke:none;" d="M78.6667 113.333L79.3333 113.667L78.6667 113.333z"/>
<path style="fill:#a8b5c6; stroke:none;" d="M91.3333 113.667L91.6667 114.333L91.3333 113.667z"/>
<path style="fill:#b5c6da; stroke:none;" d="M109.333 113.667L109.667 114.333L109.333 113.667z"/>
<path style="fill:#374f8b; stroke:none;" d="M109 117L115 114C111.566 113.197 110.328 113.698 109 117z"/>
<path style="fill:#b0b7c1; stroke:none;" d="M149 113L149 114L152 114L149 113z"/>
<path style="fill:#b9c9d9; stroke:none;" d="M186 113L189 115L189 114L186 113z"/>
<path style="fill:#da8b7a; stroke:none;" d="M591 113L592 114L591 113z"/>
<path style="fill:#efc2bd; stroke:none;" d="M641.667 113.333L642.333 113.667L641.667 113.333z"/>
<path style="fill:#ffffff; stroke:none;" d="M649 113C646.339 113.055 643.563 113.05 641.04 114.032C622.934 121.083 648.332 143.766 648.985 123C649.089 119.672 649 116.329 649 113z"/>
<path style="fill:#b3b7d4; stroke:none;" d="M51 114L51 118C52.8129 116.444 52.8129 115.556 51 114z"/>
<path style="fill:#7c9cb1; stroke:none;" d="M119 114L119 116L121 116L121 114L119 114z"/>
<path style="fill:#bababa; stroke:none;" d="M499 114L499 120L500 120L499 114z"/>
<path style="fill:#d78f77; stroke:none;" d="M592 114L593 115L592 114z"/>
<path style="fill:#e5ebf9; stroke:none;" d="M44 115L44 116L52 117L44 115z"/>
<path style="fill:#898cab; stroke:none;" d="M64 115L64 116L69 116L64 115z"/>
<path style="fill:#878abf; stroke:none;" d="M81.6667 115.333L82.3333 115.667L81.6667 115.333z"/>
<path style="fill:#395094; stroke:none;" d="M142 115L142 116C150.996 123.051 162.8 123.368 174 126C173.688 116.624 150.326 115.177 142 115z"/>
<path style="fill:#b6b2c0; stroke:none;" d="M45 116L45 117L51 117L45 116z"/>
<path style="fill:#b7c1da; stroke:none;" d="M98 116L99 121L100 121L98 116z"/>
<path style="fill:#b6b7d3; stroke:none;" d="M111 117L111 118L116 118L111 117z"/>
<path style="fill:#a7726c; stroke:none;" d="M337 116L338 117L337 116z"/>
<path style="fill:#6b7caa; stroke:none;" d="M71 117L71 118L75 118L71 117z"/>
<path style="fill:#3b5298; stroke:none;" d="M60 129C61.6918 147.581 85.8252 122.464 95 122L95 123C85.8292 126.123 72.9055 133.393 68 142L64 141C66.2209 147.022 72.1134 145.789 76.9846 142.911C82.0846 139.898 83.0586 134.447 86.6373 130.213C91.2036 124.81 98.3757 125.207 99 117L60 129z"/>
<path style="fill:#99a6b6; stroke:none;" d="M90 117L90 118L96 118L90 117z"/>
<path style="fill:#fffffa; stroke:none;" d="M179 117L179 121L189 122L189 118L179 117z"/>
<path style="fill:#b3b3b3; stroke:none;" d="M491 117L491 121L492 121L491 117z"/>
<path style="fill:#d4847d; stroke:none;" d="M636 117L637 118L636 117z"/>
<path style="fill:#db7f80; stroke:none;" d="M665 117L665 120L666 120L665 117z"/>
<path style="fill:#d99183; stroke:none;" d="M707 117L708 118L707 117z"/>
<path style="fill:#afb0ce; stroke:none;" d="M162 118L162 119L167 119L162 118z"/>
<path style="fill:#8694b1; stroke:none;" d="M182 118L182 119L187 119L182 118z"/>
<path style="fill:#c4c9cd; stroke:none;" d="M191 118L191 122L192 122L191 118z"/>
<path style="fill:#b66e71; stroke:none;" d="M339 118L340 119L339 118z"/>
<path style="fill:#fef5f6; stroke:none;" d="M46 121L46 122L49 122L44 129C48.6718 127.499 51.6971 123.652 53 119L46 121z"/>
<path style="fill:#dee6e8; stroke:none;" d="M146 119L148 124L144 124L158 133L149 123L158 123L158 122L146 119z"/>
<path style="fill:#af756a; stroke:none;" d="M340 119L341 120L340 119z"/>
<path style="fill:#ea9e91; stroke:none;" d="M627.333 119.667L627.667 120.333L627.333 119.667z"/>
<path style="fill:#ebc1c2; stroke:none;" d="M706 119L706 138L707 138L706 119z"/>
<path style="fill:#9c9cc0; stroke:none;" d="M48.6667 120.333L49.3333 120.667L48.6667 120.333z"/>
<path style="fill:#9b9db2; stroke:none;" d="M116.667 120.333L117.333 120.667L116.667 120.333z"/>
<path style="fill:#9ba2be; stroke:none;" d="M142 122L145 121L142 122z"/>
<path style="fill:#9cabb2; stroke:none;" d="M176 120L176 123L177 123L176 120z"/>
<path style="fill:#d3d4cc; stroke:none;" d="M180 120L180 121L184 121L180 120z"/>
<path style="fill:#b47677; stroke:none;" d="M341 120L342 121L341 120z"/>
<path style="fill:#bcbcbc; stroke:none;" d="M475.333 120.667L475.667 121.333L475.333 120.667z"/>
<path style="fill:#dea0a5; stroke:none;" d="M596 120L596 126L597 126L596 120z"/>
<path style="fill:#cecee6; stroke:none;" d="M43 124L46 121L43 124z"/>
<path style="fill:#abb3ca; stroke:none;" d="M58 121L58 122L61 122L58 121z"/>
<path style="fill:#9aa2b9; stroke:none;" d="M92.6667 121.333L93.3333 121.667L92.6667 121.333z"/>
<path style="fill:#41458f; stroke:none;" d="M113.333 121.667L113.667 122.333L113.333 121.667z"/>
<path style="fill:#3b5296; stroke:none;" d="M115 121L115 122L122 122L115 121z"/>
<path style="fill:#40508b; stroke:none;" d="M143 121L143 122L148 124L143 121z"/>
<path style="fill:#b0b2bf; stroke:none;" d="M174.333 121.667L174.667 122.333L174.333 121.667z"/>
<path style="fill:#9295be; stroke:none;" d="M46 122L46 123L49 123L46 122z"/>
<path style="fill:#aab5cb; stroke:none;" d="M57.3333 122.667L57.6667 123.333L57.3333 122.667z"/>
<path style="fill:#8d98ac; stroke:none;" d="M120.667 122.333L121.333 122.667L120.667 122.333z"/>
<path style="fill:#91a0c1; stroke:none;" d="M143.667 122.333L144.333 122.667L143.667 122.333z"/>
<path style="fill:#b5bbc7; stroke:none;" d="M158 122L158 123L163 123L158 122z"/>
<path style="fill:#a06257; stroke:none;" d="M337 122L337 123L340 123L337 122z"/>
<path style="fill:#4d52a6; stroke:none;" d="M116 124L116 126L122 123L116 124z"/>
<path style="fill:#c7cfd1; stroke:none;" d="M135 124L137 127L135 124z"/>
<path style="fill:#e0e2e1; stroke:none;" d="M178 124L177 129L181 124L178 124z"/>
<path style="fill:#8f96c0; stroke:none;" d="M181.333 124.667L181.667 125.333L181.333 124.667z"/>
<path style="fill:#8593b6; stroke:none;" d="M184.667 124.333L185.333 124.667L184.667 124.333z"/>
<path style="fill:#cb5c40; stroke:none;" d="M649.333 124.667L649.667 125.333L649.333 124.667z"/>
<path style="fill:#848cb1; stroke:none;" d="M52.6667 125.333L53.3333 125.667L52.6667 125.333z"/>
<path style="fill:#b4c4d3; stroke:none;" d="M71.6667 125.333L72.3333 125.667L71.6667 125.333z"/>
<path style="fill:#3b5494; stroke:none;" d="M70 149C71.8587 155.403 76.4715 154.999 80.9853 150.891C88.1633 144.36 91.0977 134.621 100 130C97.0821 133.638 94.1099 137.235 91.3465 141C89.4622 143.567 88.0069 146.403 85.787 148.715C84.383 150.176 73.5975 164.09 83.0046 159.914C90.4239 156.62 91.1406 147.085 94.8395 141C98.1184 135.606 103.572 131.86 102 125C88.0385 128.984 84.3335 148.534 70 149z"/>
<path style="fill:#41529a; stroke:none;" d="M139 125L139 126L155 138C150.669 132.974 145.838 126.056 139 125z"/>
<path style="fill:#3c5097; stroke:none;" d="M149 125C153.459 130.241 167.813 137.186 173 130L149 125z"/>
<path style="fill:#8688af; stroke:none;" d="M152 125L152 126L161 126L152 125z"/>
<path style="fill:#bec1ca; stroke:none;" d="M175 125L175 128L176 128L175 125z"/>
<path style="fill:#fffaff; stroke:none;" d="M178 130L187 127L184 132C186.59 131.089 189.799 125.738 184.941 125.631C182.356 125.575 179.819 128.448 178 130z"/>
<path style="fill:#df8988; stroke:none;" d="M723 125L724 126L723 125z"/>
<path style="fill:#9da9bf; stroke:none;" d="M41 126L41 129L42 129L41 126z"/>
<path style="fill:#fffff4; stroke:none;" d="M49 127L49 128L54 129C53.3168 125.877 51.9128 126.5 49 127z"/>
<path style="fill:#7b81b1; stroke:none;" d="M60 126L60 127L65 127L60 126z"/>
<path style="fill:#bcc4d1; stroke:none;" d="M65 128L69 127L65 128z"/>
<path style="fill:#3b529e; stroke:none;" d="M179 129L182 126L179 129z"/>
<path style="fill:#a6acbc; stroke:none;" d="M190 126L190 129L191 129L190 126z"/>
<path style="fill:#c94d57; stroke:none;" d="M613.333 126.667L613.667 127.333L613.333 126.667z"/>
<path style="fill:#d2cde3; stroke:none;" d="M47 127L50 129L47 127z"/>
<path style="fill:#a7a8bc; stroke:none;" d="M70 127L70 128L75 128L70 127z"/>
<path style="fill:#3b5296; stroke:none;" d="M148 127L166 143L167 143L169 139L148 127z"/>
<path style="fill:#db7b7c; stroke:none;" d="M724 127L725 128L724 127z"/>
<path style="fill:#919ac5; stroke:none;" d="M59 128L59 130L61 128L59 128z"/>
<path style="fill:#dfc6b2; stroke:none;" d="M627.333 128.667L627.667 129.333L627.333 128.667z"/>
<path style="fill:#e08c81; stroke:none;" d="M677 128L678 129L677 128z"/>
<path style="fill:#bcc3d6; stroke:none;" d="M61.6667 129.333L62.3333 129.667L61.6667 129.333z"/>
<path style="fill:#8c94b8; stroke:none;" d="M133.333 129.667L133.667 130.333L133.333 129.667z"/>
<path style="fill:#c5a1a3; stroke:none;" d="M245 129L240 130L240 131L245 129z"/>
<path style="fill:#dc8c85; stroke:none;" d="M587 129L588 130L587 129z"/>
<path style="fill:#dc9d8b; stroke:none;" d="M614 129L615 130L614 129z"/>
<path style="fill:#9a9fc5; stroke:none;" d="M57.3333 130.667L57.6667 131.333L57.3333 130.667z"/>
<path style="fill:#3d5699; stroke:none;" d="M85 163C89.7866 168.406 93.1426 165.325 96.3519 159.999C100.854 152.527 106.884 138.532 108 130C94.7245 134.243 97.1423 155.986 85 163z"/>
<path style="fill:#b6b4dc; stroke:none;" d="M108.333 130.667L108.667 131.333L108.333 130.667z"/>
<path style="fill:#ccc8df; stroke:none;" d="M167 130L167 131L171 131L167 130z"/>
<path style="fill:#e98286; stroke:none;" d="M572.667 130.333L573.333 130.667L572.667 130.333z"/>
<path style="fill:#fcfbf6; stroke:none;" d="M46 137L56 135L55 131L46 137z"/>
<path style="fill:#8792bf; stroke:none;" d="M110 134L111 134L113 132C110.86 130.882 110.473 131.749 110 134z"/>
<path style="fill:#f3f9eb; stroke:none;" d="M127 134L131 132C128.588 130.645 127.568 131.351 127 134z"/>
<path style="fill:#c5d4db; stroke:none;" d="M131 131L134 144L137 143L137 142L131 131z"/>
<path style="fill:#b4c1d1; stroke:none;" d="M189 131L189 134L190 134L189 131z"/>
<path style="fill:#a36f71; stroke:none;" d="M240 131L240 160L241 160L240 131z"/>
<path style="fill:#b97a82; stroke:none;" d="M335 131L336 132L335 131z"/>
<path style="fill:#e5bcb8; stroke:none;" d="M606.333 131.667L606.667 132.333L606.333 131.667z"/>
<path style="fill:#e0867d; stroke:none;" d="M645 131L646 132L645 131z"/>
<path style="fill:#e6a7a0; stroke:none;" d="M688.667 131.333L689.333 131.667L688.667 131.333z"/>
<path style="fill:#3e509a; stroke:none;" d="M111 132L96 170C106.382 163.003 104.371 156.218 107.344 146C108.786 141.045 113.163 137.357 111 132z"/>
<path style="fill:#cdd9e7; stroke:none;" d="M120 135L123 132L120 135z"/>
<path style="fill:#757ab1; stroke:none;" d="M129 132L130 137L131 137L129 132z"/>
<path style="fill:#a4b4cd; stroke:none;" d="M176.667 132.333L177.333 132.667L176.667 132.333z"/>
<path style="fill:#ce1c00; stroke:none;" d="M279 140C280.466 143.014 282.482 152.043 285.318 153.393C289.711 155.483 300.19 153.056 305 152.424C319.96 150.459 339.07 152.878 353 147C348.287 142.819 343.58 135.009 337.522 132.808C333.243 131.253 327.433 133.759 323 133.961C309.682 134.566 290.81 133.503 279 140z"/>
<path style="fill:#aeaeae; stroke:none;" d="M425 132L425 133L429 133L425 132z"/>
<path style="fill:#d9654e; stroke:none;" d="M579 132L579 133L582 133L579 132z"/>
<path style="fill:#d0817d; stroke:none;" d="M622 132L621 138L622 132z"/>
<path style="fill:#d8acab; stroke:none;" d="M640 132L640 133L644 133L640 132z"/>
<path style="fill:#a3adb7; stroke:none;" d="M45 135L49 134L45 135z"/>
<path style="fill:#acacce; stroke:none;" d="M112 133L112 136L113 136L112 133z"/>
<path style="fill:#838fb5; stroke:none;" d="M168 133L168 134L171 134L168 133z"/>
<path style="fill:#f3f3eb; stroke:none;" d="M176 133L181 136L181 137L174 139L182 145L183 145L178 141L178 140L185 138L185 136L176 133z"/>
<path style="fill:#e5c7bc; stroke:none;" d="M320 133L320 134L324 134L320 133z"/>
<path style="fill:#c04243; stroke:none;" d="M324 133L324 134L328 134L324 133z"/>
<path style="fill:#bfbfbf; stroke:none;" d="M458 133L458 157L459 157L460 133L458 133z"/>
<path style="fill:#fcc7b9; stroke:none;" d="M650 133L650 137L651 137L650 133z"/>
<path style="fill:#ddc6c0; stroke:none;" d="M307 134L307 135L315 135L307 134z"/>
<path style="fill:#cf91a0; stroke:none;" d="M692 134L692 137L693 137L692 134z"/>
<path style="fill:#bfccd2; stroke:none;" d="M43.3333 135.667L43.6667 136.333L43.3333 135.667z"/>
<path style="fill:#95a8d0; stroke:none;" d="M114.333 135.667L114.667 136.333L114.333 135.667z"/>
<path style="fill:#3d519a; stroke:none;" d="M131 135C126.08 145.011 136.707 156.819 138 167L143 167L136 149L144 152C143.895 157.504 141.889 162.433 149 163L144 148C136.13 146.563 133.939 141.474 131 135z"/>
<path style="fill:#e5bec1; stroke:none;" d="M296 135L296 136L301 136L296 135z"/>
<path style="fill:#d47a86; stroke:none;" d="M301 135L301 136L304 136L301 135z"/>
<path style="fill:#de8c81; stroke:none;" d="M590 135L591 136L590 135z"/>
<path style="fill:#dd9684; stroke:none;" d="M631 135L632 136L631 135z"/>
<path style="fill:#eb9387; stroke:none;" d="M674 135L675 136L674 135z"/>
<path style="fill:#b0b3c4; stroke:none;" d="M55.6667 136.333L56.3333 136.667L55.6667 136.333z"/>
<path style="fill:#bab9cb; stroke:none;" d="M66.6667 136.333L67.3333 136.667L66.6667 136.333z"/>
<path style="fill:#e9f5f1; stroke:none;" d="M129 136L130 137L129 136z"/>
<path style="fill:#a9b7d2; stroke:none;" d="M185.333 136.667L185.667 137.333L185.333 136.667z"/>
<path style="fill:#e7bdc1; stroke:none;" d="M284 136L284 137L290 137L284 136z"/>
<path style="fill:#d16f6e; stroke:none;" d="M290.667 136.333L291.333 136.667L290.667 136.333z"/>
<path style="fill:#df1c00; stroke:none;" d="M378 136L353 138L353 139C355.915 143.009 353.912 148.286 348.981 149.697C334.607 153.811 315.934 153.268 301 154C296.217 154.234 289.738 156.4 285.148 154.397C281.484 152.797 282.012 148.312 282 145L257 147C257 154.461 253.539 174.126 259.318 179.485C264.717 184.493 278.279 180.109 285 179.997C306.629 179.635 328.411 175.569 350 174.09C357.25 173.593 369.698 175.046 375.721 170.262C381.597 165.595 380.681 142.39 378 136z"/>
<path style="fill:#dfa399; stroke:none;" d="M729 136L721 137L721 138L729 136z"/>
<path style="fill:#fffbf1; stroke:none;" d="M49 145L60 145L59 142L54 143L58 140L57 137L49 145z"/>
<path style="fill:#fffcff; stroke:none;" d="M128 137C127.013 141.171 126.927 144.839 130 148L128 137z"/>
<path style="fill:#9595bb; stroke:none;" d="M155 137L161 143L155 137z"/>
<path style="fill:#efe1de; stroke:none;" d="M379 137L379 165L380 165L379 137z"/>
<path style="fill:#a3a3a3; stroke:none;" d="M504.667 137.333L505.333 137.667L504.667 137.333z"/>
<path style="fill:#afafaf; stroke:none;" d="M515 137L515 138L518 138L515 137z"/>
<path style="fill:#d2ad9a; stroke:none;" d="M574.667 137.333L575.333 137.667L574.667 137.333z"/>
<path style="fill:#de8889; stroke:none;" d="M584.667 137.333L585.333 137.667L584.667 137.333z"/>
<path style="fill:#cfa39a; stroke:none;" d="M651 137L651 138L658 138L651 137z"/>
<path style="fill:#dd9392; stroke:none;" d="M678.667 137.333L679.333 137.667L678.667 137.333z"/>
<path style="fill:#e99a9d; stroke:none;" d="M688.667 137.333L689.333 137.667L688.667 137.333z"/>
<path style="fill:#e29b9f; stroke:none;" d="M698 137L698 138L706 138L698 137z"/>
<path style="fill:#8485bd; stroke:none;" d="M162.667 138.333L163.333 138.667L162.667 138.333z"/>
<path style="fill:#bacdba; stroke:none;" d="M175.667 138.333L176.333 138.667L175.667 138.333z"/>
<path style="fill:#d2d2d2; stroke:none;" d="M424 138L424 139L428 139L424 138z"/>
<path style="fill:#cfcfcf; stroke:none;" d="M466 138L466 139L470 139L466 138z"/>
<path style="fill:#eccbc2; stroke:none;" d="M637 138L637 139L641 139L637 138z"/>
<path style="fill:#9a98bf; stroke:none;" d="M116 139L118 141L118 139L116 139z"/>
<path style="fill:#fffcff; stroke:none;" d="M120 139C118.372 144.521 118.734 151.976 125 154L120 139z"/>
<path style="fill:#d45544; stroke:none;" d="M353 139C352.956 142.765 352.945 146.431 348.941 148.106C336.798 153.188 318.109 150.734 305 152.285C300.034 152.873 290.833 155.159 286.148 153.357C282.733 152.044 283.036 148.005 283 145L282 145C282.002 147.886 281.161 152.843 284.318 154.397C288.943 156.673 296.137 154.306 301 154.035C312.021 153.422 323.011 152.216 334 151.17C339.295 150.665 345.875 151.587 350.867 149.4C354.919 147.626 354.919 142.772 355 139L353 139z"/>
<path style="fill:#fffeff; stroke:none;" d="M116 140L116 159L117 159L116 140z"/>
<path style="fill:#98abcb; stroke:none;" d="M167.667 140.333L168.333 140.667L167.667 140.333z"/>
<path style="fill:#7b92b1; stroke:none;" d="M173 140L173 142L175 142L173 140z"/>
<path style="fill:#b3bce3; stroke:none;" d="M66.6667 141.333L67.3333 141.667L66.6667 141.333z"/>
<path style="fill:#8f9db7; stroke:none;" d="M97.3333 141.667L97.6667 142.333L97.3333 141.667z"/>
<path style="fill:#94a3b8; stroke:none;" d="M182 141L184 143L184 141L182 141z"/>
<path style="fill:#49519c; stroke:none;" d="M161 142L165 148L161 142z"/>
<path style="fill:#a7acca; stroke:none;" d="M116.333 143.667L116.667 144.333L116.333 143.667z"/>
<path style="fill:#afb0cc; stroke:none;" d="M118 143L118 146L119 146L118 143z"/>
<path style="fill:#fdf9fa; stroke:none;" d="M135 143L142 148L135 143z"/>
<path style="fill:#fbfffb; stroke:none;" d="M172 143L169 150L178 154C179.617 150.738 181.185 148.482 178 146L178 151L175 148L173 149L174 144L172 143z"/>
<path style="fill:#8998b7; stroke:none;" d="M105.333 144.667L105.667 145.333L105.333 144.667z"/>
<path style="fill:#a6accc; stroke:none;" d="M109 144L109 150L110 150L109 144z"/>
<path style="fill:#bec4d2; stroke:none;" d="M122 144L122 150L123 150L122 144z"/>
<path style="fill:#a4b5c9; stroke:none;" d="M131.333 144.667L131.667 145.333L131.333 144.667z"/>
<path style="fill:#8185b5; stroke:none;" d="M172 146L175 144L172 146z"/>
<path style="fill:#b6c3cb; stroke:none;" d="M69.6667 145.333L70.3333 145.667L69.6667 145.333z"/>
<path style="fill:#9f9fbb; stroke:none;" d="M114 145L114 151L115 151L114 145z"/>
<path style="fill:#a1a8d2; stroke:none;" d="M60 146L60 148L62 146L60 146z"/>
<path style="fill:#777ba8; stroke:none;" d="M117 146L117 149L118 149L119 146L117 146z"/>
<path style="fill:#b9bccb; stroke:none;" d="M143 146L145 149L145 146L143 146z"/>
<path style="fill:#4f59a0; stroke:none;" d="M172 146L174 149L172 146z"/>
<path style="fill:#c8cfe2; stroke:none;" d="M174 146L177 149L174 146z"/>
<path style="fill:#fbfbfb; stroke:none;" d="M59 157L56 155L56 153L57 152L62 153L60 150L65 153C61.1027 142.012 49.9829 155.262 59 157z"/>
<path style="fill:#bdc2d8; stroke:none;" d="M96 147L96 150L97 150L96 147z"/>
<path style="fill:#3d5196; stroke:none;" d="M118 147L118 172L123 172C122.896 167.096 119.3 160.083 124 157L118 147z"/>
<path style="fill:#7d87bc; stroke:none;" d="M159 147L161 150L159 147z"/>
<path style="fill:#b3bed2; stroke:none;" d="M129 148L129 151L131 150L131 149L129 148z"/>
<path style="fill:#93a5af; stroke:none;" d="M141.667 148.333L142.333 148.667L141.667 148.333z"/>
<path style="fill:#98a4ba; stroke:none;" d="M178.333 148.667L178.667 149.333L178.333 148.667z"/>
<path style="fill:#808eb3; stroke:none;" d="M106 149L106 152L107 152L106 149z"/>
<path style="fill:#8c98ae; stroke:none;" d="M136 149L140 153L136 149z"/>
<path style="fill:#adb4c7; stroke:none;" d="M116 150L116 153L117 153L116 150z"/>
<path style="fill:#737399; stroke:none;" d="M161 150L162 151L161 150z"/>
<path style="fill:#aeb6c3; stroke:none;" d="M53 151L53 153L55 151L53 151z"/>
<path style="fill:#fffbfc; stroke:none;" d="M167 151L165 155L173 160L175 157L167 151z"/>
<path style="fill:#4850a5; stroke:none;" d="M57 152L56 153L56 154L56 155L59 152L57 152z"/>
<path style="fill:#989aaf; stroke:none;" d="M57 155L57 156L60 157L60 154L57 155z"/>
<path style="fill:#fcfff8; stroke:none;" d="M66 154L61 163L64 161L65 167L66 167L66 162C72.1907 160.963 69.7891 156.895 66 154z"/>
<path style="fill:#afadd5; stroke:none;" d="M124 154L124 157L125 157L126 154L124 154z"/>
<path style="fill:#879bbe; stroke:none;" d="M144.333 154.667L144.667 155.333L144.333 154.667z"/>
<path style="fill:#9aa3ca; stroke:none;" d="M147.333 154.667L147.667 155.333L147.333 154.667z"/>
<path style="fill:#a0a5b8; stroke:none;" d="M156 154L156 157L157 157L156 154z"/>
<path style="fill:#8e92bf; stroke:none;" d="M115 155L115 161L116 161L115 155z"/>
<path style="fill:#bcc3df; stroke:none;" d="M77.3333 157.667L77.6667 158.333L77.3333 157.667z"/>
<path style="fill:#b2b7bb; stroke:none;" d="M121 157L121 163L122 163L124 158L121 157z"/>
<path style="fill:#a2acb6; stroke:none;" d="M136 157L136 160L137 160L136 157z"/>
<path style="fill:#acb3cf; stroke:none;" d="M148.333 157.667L148.667 158.333L148.333 157.667z"/>
<path style="fill:#fcfbff; stroke:none;" d="M158 161L164 169L167 167L165 164L171 163L171 162L166 162C165.03 156.207 161.587 157.998 158 161z"/>
<path style="fill:#3e528f; stroke:none;" d="M65 159L65 160L69 158L65 159z"/>
<path style="fill:#b6bcd2; stroke:none;" d="M127 158L127 162L128 162L127 158z"/>
<path style="fill:#c7d0e1; stroke:none;" d="M116 159L116 165L117 165L116 159z"/>
<path style="fill:#41519e; stroke:none;" d="M162 159L164 163L162 159z"/>
<path style="fill:#7779a9; stroke:none;" d="M63 161L63 166L64 166L63 161z"/>
<path style="fill:#989fbc; stroke:none;" d="M80.6667 161.333L81.3333 161.667L80.6667 161.333z"/>
<path style="fill:#b4b4d0; stroke:none;" d="M66 162L66 163L69 163L66 162z"/>
<path style="fill:#c7cee8; stroke:none;" d="M73 162L73 163L78 167L73 162z"/>
<path style="fill:#acabcd; stroke:none;" d="M84 164L88 163L84 164z"/>
<path style="fill:#a5aac0; stroke:none;" d="M158.667 162.333L159.333 162.667L158.667 162.333z"/>
<path style="fill:#f5f9ff; stroke:none;" d="M72 163L73 171L69 167C68.9331 171.09 71.1868 171.71 75 172L74 163L72 163z"/>
<path style="fill:#b5b9d4; stroke:none;" d="M71 164L71 167L72 167L71 164z"/>
<path style="fill:#c7cee0; stroke:none;" d="M134 164L134 169L135 169L134 164z"/>
<path style="fill:#b6c0c1; stroke:none;" d="M143.333 164.667L143.667 165.333L143.333 164.667z"/>
<path style="fill:#ddeff1; stroke:none;" d="M154 164L154 165L157 166L154 164z"/>
<path style="fill:#707ead; stroke:none;" d="M165 164L165 165L167 167L168 167L170 165L165 164z"/>
<path style="fill:#a4b6b8; stroke:none;" d="M76 165L78 168L76 165z"/>
<path style="fill:#aeb4d8; stroke:none;" d="M153 167L156 166L153 167z"/>
<path style="fill:#b6c6d5; stroke:none;" d="M165.667 165.333L166.333 165.667L165.667 165.333z"/>
<path style="fill:#7f8aa6; stroke:none;" d="M137 166L141 168L141 167L137 166z"/>
<path style="fill:#fffcfa; stroke:none;" d="M150 167L156 175L161 169L159 172L153 166L150 167z"/>
<path style="fill:#f5fffd; stroke:none;" d="M81 167C79.7426 170.469 76.4968 174.349 80 177L85 169L81 167z"/>
<path style="fill:#8d99b3; stroke:none;" d="M98 167L98 170L99 170L98 167z"/>
<path style="fill:#878bb0; stroke:none;" d="M155 167L154 169L156 169L155 167z"/>
<path style="fill:#cae0de; stroke:none;" d="M156 167L158 170L156 167z"/>
<path style="fill:#707ea3; stroke:none;" d="M123 168L123 172L124 172L123 168z"/>
<path style="fill:#afbad0; stroke:none;" d="M75.3333 169.667L75.6667 170.333L75.3333 169.667z"/>
<path style="fill:#f9fafe; stroke:none;" d="M146 169L146 178L139 173L144 182L143 179L147 181L147 174L148 174L149 179L152 178L149 169L146 169z"/>
<path style="fill:#fcf3ff; stroke:none;" d="M85 173L88 172L84 180L88 182L90 174L92 176C92.9492 171.617 87.5469 169.354 85 173z"/>
<path style="fill:#a8adcb; stroke:none;" d="M145 170L145 175L146 175L145 170z"/>
<path style="fill:#8c95bc; stroke:none;" d="M161.333 170.667L161.667 171.333L161.333 170.667z"/>
<path style="fill:#c5c8cf; stroke:none;" d="M130.667 171.333L131.333 171.667L130.667 171.333z"/>
<path style="fill:#afb9c2; stroke:none;" d="M71 172L71 173L74 173L71 172z"/>
<path style="fill:#bcc5ca; stroke:none;" d="M98.6667 172.333L99.3333 172.667L98.6667 172.333z"/>
<path style="fill:#b1b6dc; stroke:none;" d="M106 172L106 173L110 173L106 172z"/>
<path style="fill:#8d8bba; stroke:none;" d="M118 172L118 173L123 173L118 172z"/>
<path style="fill:#e15d68; stroke:none;" d="M369 172L369 173L372 173L369 172z"/>
<path style="fill:#aebcbd; stroke:none;" d="M93.3333 173.667L93.6667 174.333L93.3333 173.667z"/>
<path style="fill:#b6c6c3; stroke:none;" d="M102.667 173.333L103.333 173.667L102.667 173.333z"/>
<path style="fill:#b6b9ca; stroke:none;" d="M127.667 173.333L128.333 173.667L127.667 173.333z"/>
<path style="fill:#cad0d0; stroke:none;" d="M137 173L137 175L139 175L139 173L137 173z"/>
<path style="fill:#bfd4c1; stroke:none;" d="M155.333 173.667L155.667 174.333L155.333 173.667z"/>
<path style="fill:#f5c1c3; stroke:none;" d="M360 173L360 174L366 174L360 173z"/>
<path style="fill:#b3b8d6; stroke:none;" d="M76 174L76 176L78 174L76 174z"/>
<path style="fill:#d8dfe5; stroke:none;" d="M107 174L107 175L123 175L107 174z"/>
<path style="fill:#616e9a; stroke:none;" d="M147 174L147 181L148 181L147 174z"/>
<path style="fill:#dc5c53; stroke:none;" d="M346.667 174.333L347.333 174.667L346.667 174.333z"/>
<path style="fill:#eabbc3; stroke:none;" d="M348 174L348 175L354 175L348 174z"/>
<path style="fill:#fffeff; stroke:none;" d="M97 175L94 181L97 178L98 178L97 185C101.772 183.977 99.1904 178.777 99 175L97 175z"/>
<path style="fill:#d0d0da; stroke:none;" d="M99 175L99 180L100 180L99 175z"/>
<path style="fill:#f8faff; stroke:none;" d="M129 176L131 186L135 185L135 184L133 175L129 176z"/>
<path style="fill:#827cac; stroke:none;" d="M145 175L146 178L145 175z"/>
<path style="fill:#f1bab7; stroke:none;" d="M336 175L336 176L342 176L336 175z"/>
<path style="fill:#beb4cf; stroke:none;" d="M106 176L107 178L108 178L109 176L106 176z"/>
<path style="fill:#aeacc1; stroke:none;" d="M141 176L141 178L143 178L141 176z"/>
<path style="fill:#d5544f; stroke:none;" d="M323.667 176.333L324.333 176.667L323.667 176.333z"/>
<path style="fill:#e3c3c4; stroke:none;" d="M325 176L325 177L331 177L325 176z"/>
<path style="fill:#fcffff; stroke:none;" d="M105 177C104.445 180.813 105.698 182.145 109 184L109 185L106 186L106 187C111.909 186.017 110.766 181.998 106 180L107 178L105 177z"/>
<path style="fill:#fefff1; stroke:none;" d="M108 177L111 180L108 177z"/>
<path style="fill:#fefff7; stroke:none;" d="M121 177L123 183C119.953 183.615 117.992 186.123 122 187L121 184L128 186L123 177L121 177z"/>
<path style="fill:#dc636a; stroke:none;" d="M312 177L312 178L315 178L312 177z"/>
<path style="fill:#eec9c0; stroke:none;" d="M315 177L315 178L320 178L315 177z"/>
<path style="fill:#c2c9d9; stroke:none;" d="M97 178L92 184C95.174 183.125 97.8087 181.558 97 178z"/>
<path style="fill:#a2a6b2; stroke:none;" d="M106.333 178.667L106.667 179.333L106.333 178.667z"/>
<path style="fill:#3d3e8e; stroke:none;" d="M142 178L143 179L142 178z"/>
<path style="fill:#e18b8a; stroke:none;" d="M300 178L300 179L304 179L300 178z"/>
<path style="fill:#abb8c0; stroke:none;" d="M130.333 179.667L130.667 180.333L130.333 179.667z"/>
<path style="fill:#667ebc; stroke:none;" d="M143 179L145 182L146 181L145 179L143 179z"/>
<path style="fill:#e9c0c6; stroke:none;" d="M291 179L291 180L296 180L291 179z"/>
<path style="fill:#b1b7cf; stroke:none;" d="M141 180L143 183L141 180z"/>
<path style="fill:#d45d55; stroke:none;" d="M277 180L277 181L280 181L277 180z"/>
<path style="fill:#f4c6c9; stroke:none;" d="M280 180L280 181L286 181L280 180z"/>
<path style="fill:#d3d0e5; stroke:none;" d="M120 181L120 183L122 183L122 181L120 181z"/>
<path style="fill:#65669e; stroke:none;" d="M122.333 181.667L122.667 182.333L122.333 181.667z"/>
<path style="fill:#eef8f0; stroke:none;" d="M136 181L136 184L138 184L138 181L136 181z"/>
<path style="fill:#ce6e5e; stroke:none;" d="M261.667 181.333L262.333 181.667L261.667 181.333z"/>
<path style="fill:#dd6358; stroke:none;" d="M266.667 181.333L267.333 181.667L266.667 181.333z"/>
<path style="fill:#ebc7c7; stroke:none;" d="M268 181L268 182L274 182L268 181z"/>
<path style="fill:#8793ad; stroke:none;" d="M103 183L106 187L106 186L103 183z"/>
<path style="fill:#fffeff; stroke:none;" d="M104 183L106 186L104 183z"/>
<path style="fill:#b9c3cc; stroke:none;" d="M133 183L133 184L137 185L137 184L133 183z"/>
<path style="fill:#9badc3; stroke:none;" d="M100 184L99 186L101 186L100 184z"/>
<path style="fill:#c7c5d3; stroke:none;" d="M124 184L128 187L128 186L124 184z"/>
<path style="fill:#8e94b6; stroke:none;" d="M106.667 185.333L107.333 185.667L106.667 185.333z"/>
<path style="fill:#8c92b6; stroke:none;" d="M97.6667 187.333L98.3333 187.667L97.6667 187.333z"/>
<path style="fill:#bec6d3; stroke:none;" d="M133.667 187.333L134.333 187.667L133.667 187.333z"/>
<path style="fill:#aca9c4; stroke:none;" d="M107 189L107 190L112 190L107 189z"/>
<path style="fill:#7a83aa; stroke:none;" d="M112 189L112 190L118 190L112 189z"/>
<path style="fill:#b7b9d2; stroke:none;" d="M118 189L118 190L123 190L118 189z"/>
</svg>
