<?xml version="1.0" standalone="no"?>
<!DOCTYPE svg PUBLIC "-//W3C//DTD SVG 20010904//EN"
 "http://www.w3.org/TR/2001/REC-SVG-20010904/DTD/svg10.dtd">
<svg version="1.0" xmlns="http://www.w3.org/2000/svg"
 width="797.000000pt" height="228.000000pt" viewBox="0 0 797.000000 228.000000"
 preserveAspectRatio="xMidYMid meet">

<g transform="translate(0.000000,228.000000) scale(0.100000,-0.100000)"
fill="#000000" stroke="none">
<path d="M2992 1890 c-520 -46 -534 -48 -557 -71 -23 -23 -24 -31 -26 -172 -2
-148 -2 -148 25 -176 29 -30 26 -41 -12 -41 l-25 0 5 -200 c4 -189 5 -201 26
-223 27 -29 28 -37 3 -37 -10 0 -21 -6 -23 -12 -2 -7 -4 -75 -3 -150 l0 -138
95 -96 c52 -52 105 -99 116 -104 23 -9 1094 81 1127 95 38 16 47 57 47 206 0
141 0 143 -27 171 l-27 28 27 0 27 0 0 202 0 202 -26 27 -27 28 27 7 26 6 0
142 0 143 -99 98 c-55 54 -106 102 -113 106 -17 11 32 14 -586 -41z m378 -590
l0 -190 25 -16 c31 -20 32 -32 3 -36 -19 -2 -24 -11 -29 -46 -6 -43 -20 -61
-49 -62 -8 0 -112 -9 -230 -20 -118 -11 -227 -20 -242 -20 l-28 0 0 193 0 192
-25 19 c-14 10 -25 23 -25 27 0 5 11 9 25 9 22 0 25 4 25 33 0 59 14 64 245
85 116 11 231 20 258 21 l47 1 0 -190z"/>
<path d="M1066 1890 c-286 -34 -538 -245 -626 -522 -62 -195 -34 -436 71 -615
45 -77 189 -219 269 -266 36 -21 101 -50 145 -64 73 -25 94 -27 235 -28 144 0
161 2 235 28 119 42 209 99 300 191 93 95 135 162 179 283 30 85 31 94 31 243
-1 141 -3 162 -28 235 -40 119 -91 199 -192 300 -76 77 -104 98 -185 137 -144
70 -284 95 -434 78z m74 -36 c0 -11 -6 -14 -20 -9 -11 4 -20 2 -20 -4 0 -6 5
-10 10 -8 11 2 47 -49 40 -56 -3 -3 -22 -7 -42 -11 l-38 -7 0 40 c0 22 -3 46
-6 55 -5 13 2 16 35 16 31 0 41 -4 41 -16z m140 -6 c0 -10 -4 -18 -10 -18 -5
0 -10 5 -10 10 0 6 -8 10 -17 10 -14 -1 -12 -5 10 -23 31 -26 34 -39 12 -57
-19 -15 -65 -5 -65 15 0 8 5 15 10 15 6 0 10 -4 10 -10 0 -5 7 -10 15 -10 21
0 19 13 -5 28 -20 12 -27 42 -13 55 3 4 19 6 35 5 19 -2 28 -8 28 -20z m-245
-10 c1 -13 4 -35 8 -50 6 -21 4 -28 -7 -28 -8 0 -18 4 -21 10 -3 5 -14 14 -25
20 -15 8 -17 7 -13 -10 3 -11 10 -20 15 -20 5 0 6 -4 3 -10 -13 -21 -33 -9
-37 23 -3 17 -8 40 -13 50 -10 24 16 22 49 -4 21 -16 26 -17 26 -5 0 8 -4 18
-10 21 -16 10 -12 25 8 25 11 0 17 -8 17 -22z m325 -5 c0 -10 3 -35 6 -55 6
-34 4 -38 -15 -38 -15 0 -21 5 -19 16 2 10 -3 19 -9 21 -7 3 -13 -2 -13 -11 0
-16 -12 -21 -23 -10 -7 8 52 94 65 94 4 0 8 -8 8 -17z m-421 -87 c9 -11 8 -15
-5 -20 -23 -9 -36 -7 -29 3 6 10 -14 62 -28 72 -5 4 -1 11 9 17 15 9 20 5 30
-24 6 -19 17 -40 23 -48z m531 54 c30 -30 3 -67 -41 -58 -8 2 -13 -3 -11 -9 2
-13 -20 -18 -30 -7 -3 3 2 22 12 42 10 20 16 40 13 44 -10 17 38 7 57 -12z
m-620 -18 c0 -10 9 -28 21 -40 21 -23 18 -42 -7 -42 -8 0 -13 4 -9 9 3 5 1 12
-5 16 -6 4 -10 -5 -10 -19 0 -29 -3 -31 -33 -14 -20 10 -21 10 -9 -5 8 -9 11
-21 7 -27 -10 -16 -25 -12 -25 9 0 10 -10 31 -21 46 -18 22 -19 29 -8 35 8 6
19 4 29 -4 37 -32 43 -31 36 7 -5 24 -3 37 6 40 23 9 28 7 28 -11z m680 -42
c-11 -11 -22 -31 -26 -45 -5 -21 -9 -23 -25 -14 -19 10 -18 11 6 43 14 18 25
38 25 45 0 9 5 9 20 1 19 -10 19 -11 0 -30z m-210 -11 c266 -73 450 -314 450
-589 0 -350 -295 -628 -643 -607 -444 26 -710 489 -509 890 71 143 229 268
392 311 83 22 221 20 310 -5z m288 -9 c24 -20 22 -40 -3 -40 -7 0 -16 -6 -18
-12 -4 -10 -8 -10 -15 1 -7 9 -12 10 -16 2 -10 -16 2 -31 19 -24 8 3 15 0 15
-5 0 -22 -21 -23 -49 -2 l-30 20 29 32 c16 17 27 35 24 40 -10 15 21 7 44 -12z
m-870 -36 c25 -40 27 -55 10 -72 -19 -19 -50 -14 -81 14 -24 20 -27 27 -17 39
7 8 17 15 23 15 6 0 7 -3 4 -7 -9 -9 33 -53 50 -53 22 0 14 38 -13 59 -14 11
-23 25 -19 31 10 16 19 11 43 -26z m929 -58 l-6 -41 20 24 c15 18 23 21 31 13
7 -7 10 -13 7 -15 -34 -27 -77 -57 -83 -57 -4 0 -5 19 -1 43 l6 42 -20 -23
c-11 -13 -25 -21 -31 -17 -15 9 -12 25 4 25 8 0 25 13 38 29 30 37 42 29 35
-23z m-1036 -48 l33 -33 6 29 c5 27 6 28 19 12 13 -15 11 -20 -11 -43 l-26
-25 -20 20 c-11 11 -27 24 -36 29 -11 6 -14 16 -10 26 8 22 7 22 45 -15z
m1133 -25 c19 -28 22 -39 13 -45 -19 -12 -27 -9 -21 7 9 23 -10 18 -41 -11
-22 -20 -30 -23 -36 -12 -12 18 -11 28 2 28 6 0 22 9 36 20 19 15 21 20 9 20
-27 0 -21 18 11 29 1 1 14 -16 27 -36z m-1175 -74 c27 -16 31 -23 20 -30 -8
-5 -24 -9 -36 -9 -13 0 -23 -4 -23 -10 0 -9 14 -14 33 -11 11 2 9 -27 -3 -34
-5 -3 -10 -2 -10 3 0 10 -60 38 -72 34 -5 -1 -8 5 -8 13 0 8 14 17 35 21 29 5
33 9 24 20 -6 8 -15 11 -20 8 -10 -6 -12 19 -3 29 3 3 11 1 18 -4 6 -6 26 -19
45 -30z m1223 -16 c-1 -2 -4 -3 -7 -3 -13 1 -65 -32 -65 -40 0 -6 22 -10 49
-10 28 0 52 -4 55 -9 3 -4 -13 -25 -35 -46 -32 -30 -43 -35 -50 -24 -13 20
-11 29 6 29 8 0 12 6 9 14 -3 8 -12 12 -19 10 -8 -4 -20 7 -29 25 -17 32 -21
52 -8 49 13 -5 72 24 72 36 0 6 6 2 12 -9 7 -11 11 -21 10 -22z m-1306 -78
c16 -8 37 -15 47 -15 9 0 17 -6 17 -13 0 -23 -12 -27 -41 -12 -15 8 -37 15
-48 15 -14 0 -18 5 -14 20 6 24 4 24 39 5z m4 -116 c0 -5 -7 -9 -15 -9 -15 0
-20 12 -9 23 8 8 24 -1 24 -14z m1330 3 c0 -13 -12 -22 -22 -16 -10 6 -1 24
13 24 5 0 9 -4 9 -8z m-1310 -86 c0 -22 -3 -23 -46 -18 -41 4 -46 3 -42 -14 3
-15 12 -19 46 -18 35 1 42 -3 42 -18 0 -14 -5 -17 -25 -13 -14 3 -36 7 -50 10
-29 6 -44 47 -25 70 6 7 28 16 48 18 20 2 40 4 45 5 4 1 7 -9 7 -22z m1356 13
c4 -7 8 -25 10 -40 3 -23 0 -29 -16 -29 -11 0 -20 5 -20 10 0 6 5 10 10 10 6
0 10 7 10 15 0 23 -16 18 -28 -11 -18 -39 -56 -30 -60 15 -3 31 -2 33 23 29
14 -3 28 -1 31 3 7 13 32 11 40 -2z m-4 -103 c5 3 8 -3 8 -13 0 -15 -8 -18
-50 -18 -44 0 -50 2 -50 21 0 20 3 21 42 14 24 -5 46 -6 50 -4z m-1352 -19 c0
-8 -9 -22 -20 -32 -24 -22 -26 -35 -5 -35 8 0 15 5 15 10 0 6 5 10 10 10 6 0
10 -9 10 -21 0 -11 -3 -18 -8 -15 -4 2 -26 1 -50 -4 -50 -9 -54 2 -14 43 l27
28 -28 -10 c-37 -14 -37 -14 -37 8 0 14 6 17 24 14 13 -3 32 0 43 6 24 14 33
14 33 -2z m1290 -47 c0 -5 -7 -10 -15 -10 -8 0 -15 -7 -15 -16 0 -12 7 -10 30
10 17 14 37 23 45 20 20 -8 19 -63 0 -71 -24 -9 -31 5 -10 21 11 8 14 15 8 19
-6 4 -18 -2 -28 -13 -34 -37 -71 -19 -58 29 5 21 43 30 43 11z m-1260 -87 c0
-7 -6 -10 -13 -8 -7 3 -29 -3 -50 -14 -20 -10 -37 -15 -37 -11 0 5 -2 15 -6
23 -4 11 6 16 38 20 23 3 44 11 46 17 5 14 22 -7 22 -27z m1220 9 c0 -5 18
-14 40 -21 50 -15 51 -26 4 -41 -25 -8 -32 -15 -24 -20 7 -5 20 -6 28 -2 12 4
14 1 9 -12 -4 -10 -7 -19 -7 -21 0 -1 -16 5 -36 15 -20 10 -42 16 -50 13 -17
-6 -19 11 -1 24 6 6 26 15 42 21 23 8 26 11 10 12 -11 1 -23 2 -27 1 -5 0 -8
8 -8 19 0 11 5 20 10 20 6 0 10 -4 10 -8z m-1206 -48 c4 -9 -5 -24 -22 -39
l-27 -24 34 9 c34 10 57 -2 45 -22 -3 -4 -1 -8 3 -8 14 0 45 -59 38 -71 -4 -6
-14 -8 -22 -5 -9 4 -17 -1 -20 -13 -8 -32 -31 -32 -54 0 -12 17 -20 31 -18 32
81 43 85 62 16 63 -26 0 -50 4 -53 7 -7 6 55 85 67 86 4 1 10 -6 13 -15z
m1172 -72 c-3 -3 2 -11 12 -18 14 -11 14 -15 4 -22 -11 -8 -11 -10 2 -15 15
-6 20 3 17 30 -1 8 5 10 14 7 19 -8 19 -8 0 -44 -18 -35 -22 -36 -55 -10 -14
11 -31 20 -37 20 -17 0 -16 16 3 45 9 14 21 22 30 18 8 -3 12 -8 10 -11z m-5
-116 c11 7 11 -7 0 -25 -8 -12 -15 -10 -40 11 -17 15 -36 28 -43 30 -11 4 -11
8 0 20 11 14 16 12 43 -13 17 -16 35 -26 40 -23z m-1050 2 c26 -32 24 -56 -6
-64 -16 -4 -25 -13 -25 -25 0 -10 -4 -19 -10 -19 -10 0 -13 11 -11 45 1 18 0
18 -7 2 -7 -17 -9 -17 -26 2 -16 18 -17 21 -3 21 8 0 26 13 39 29 13 17 25 30
26 30 2 1 12 -9 23 -21z m967 -36 c3 -16 10 -22 29 -22 22 0 24 -2 13 -15 -8
-9 -21 -13 -34 -10 -16 5 -18 4 -7 -4 12 -7 12 -13 3 -24 -11 -12 -18 -9 -48
21 l-35 35 23 24 c26 28 52 26 56 -5z m-887 -38 c10 -9 15 -22 12 -30 -8 -21
-23 -17 -23 6 0 11 -5 20 -11 20 -6 0 -8 -9 -3 -22 12 -37 10 -50 -8 -61 -14
-9 -22 -7 -39 10 -12 11 -18 26 -15 32 10 16 26 14 20 -3 -3 -8 0 -17 6 -21
18 -11 22 0 9 28 -9 21 -9 30 1 42 16 19 29 19 51 -1z m799 -15 c0 -5 -7 -9
-15 -9 -8 0 -15 -5 -15 -11 0 -5 4 -8 9 -5 10 6 71 -22 71 -32 0 -4 -14 -17
-32 -29 l-31 -22 -20 40 c-10 21 -24 39 -31 39 -6 1 2 12 18 25 29 23 46 25
46 4z m-730 -34 c9 -11 9 -15 1 -15 -7 0 -20 -18 -30 -40 -16 -36 -19 -38 -36
-26 -17 12 -17 14 3 34 20 20 26 35 23 55 -2 13 26 7 39 -8z m646 -14 c-3 -5
5 -25 19 -45 13 -20 23 -36 21 -36 -3 0 -11 -3 -20 -6 -10 -4 -16 -1 -16 9 0
9 -5 19 -11 23 -8 5 -10 -1 -7 -20 7 -34 -8 -43 -35 -19 -18 14 -19 15 -8 1 7
-9 10 -22 6 -28 -11 -18 -22 -11 -28 19 -3 16 -13 36 -22 44 -8 9 -15 18 -15
21 0 13 45 5 62 -11 17 -15 18 -15 18 14 0 16 3 33 7 36 10 10 35 8 29 -2z
m-581 -18 c38 -18 39 -21 25 -43 -8 -13 -10 -12 -10 3 0 9 -4 17 -8 17 -10 0
-32 -45 -32 -66 0 -12 -4 -12 -20 -4 -19 10 -19 11 0 43 24 38 25 51 5 43 -15
-5 -20 5 -8 17 9 9 7 9 48 -10z m97 -90 c3 -29 2 -53 -1 -53 -16 1 -33 19 -27
29 4 6 1 11 -8 11 -8 0 -16 -5 -18 -12 -3 -7 -12 -9 -23 -5 -16 7 -16 9 -3 20
8 6 25 27 38 45 27 41 36 33 42 -35z m324 26 c2 -43 20 -58 39 -33 14 19 14
19 15 -3 0 -24 -3 -27 -42 -37 -24 -6 -28 -3 -28 16 0 13 -6 35 -14 50 -11 20
-11 28 -3 32 25 10 32 5 33 -25z m-229 13 c7 -4 11 -26 10 -52 -2 -43 -3 -45
-35 -48 -22 -2 -34 2 -38 13 -8 21 3 32 18 17 7 -7 19 -12 28 -12 10 1 6 8
-12 21 -40 29 -36 65 7 68 6 0 15 -3 22 -7z m163 -54 c25 -46 25 -48 0 -48
-11 0 -20 7 -20 15 0 8 -7 15 -16 15 -10 0 -14 -6 -11 -14 3 -8 -1 -17 -8 -20
-16 -6 -30 10 -16 18 5 3 12 23 16 43 12 66 16 66 55 -9z"/>
<path d="M1100 1795 c0 -16 16 -20 24 -6 3 5 -1 11 -9 15 -9 3 -15 0 -15 -9z"/>
<path d="M1436 1784 c-8 -22 1 -31 16 -16 9 9 9 15 1 23 -7 7 -12 5 -17 -7z"/>
<path d="M1143 1723 c-18 -6 -16 -52 3 -104 12 -35 14 -66 10 -146 -5 -68 -3
-103 4 -103 5 0 10 14 10 30 0 31 27 96 36 87 3 -3 -1 -18 -9 -34 -8 -15 -15
-45 -15 -66 0 -29 4 -37 18 -37 11 0 22 10 26 22 4 13 26 47 50 75 23 29 48
70 54 90 7 21 20 50 29 66 14 25 14 30 -3 62 -11 19 -22 35 -26 35 -9 0 -40
-96 -40 -126 0 -22 -16 -41 -27 -31 -3 3 0 29 7 57 13 53 6 120 -11 120 -6 0
-7 -5 -4 -11 4 -5 -5 -21 -20 -35 -26 -24 -27 -29 -21 -82 5 -43 3 -62 -8 -77
-15 -20 -15 -19 -17 5 -1 14 -4 45 -6 70 -2 25 -3 61 -3 81 0 38 -16 60 -37
52z"/>
<path d="M1042 1708 c-6 -6 -12 -33 -12 -59 0 -39 6 -54 35 -89 32 -39 35 -47
35 -110 0 -47 4 -71 14 -80 12 -9 16 -5 21 27 3 21 8 52 11 68 2 17 -5 62 -16
100 -12 39 -27 88 -33 110 -12 41 -34 54 -55 33z"/>
<path d="M960 1685 c0 -3 15 -36 34 -73 19 -37 46 -107 61 -155 15 -48 29 -87
30 -87 2 0 3 20 2 45 -1 25 -5 45 -8 45 -4 0 -10 12 -13 28 -10 40 -88 202
-98 202 -4 0 -8 -2 -8 -5z"/>
<path d="M890 1642 c0 -11 9 -27 19 -36 11 -10 17 -25 14 -35 -7 -27 23 -78
55 -95 21 -11 31 -27 42 -65 8 -31 19 -51 28 -51 18 0 9 58 -19 112 -10 20
-19 44 -19 53 0 8 -14 27 -31 42 -18 16 -38 43 -45 61 -15 35 -44 44 -44 14z"/>
<path d="M1416 1624 c-15 -16 -35 -38 -45 -49 -10 -11 -24 -39 -31 -62 -7 -23
-30 -63 -51 -88 -39 -47 -47 -69 -30 -79 11 -7 85 77 106 120 8 17 21 37 30
44 8 7 15 24 15 38 0 14 12 38 27 54 20 21 24 31 16 39 -9 9 -18 4 -37 -17z"/>
<path d="M1451 1552 c-19 -31 -55 -84 -81 -117 -58 -74 -75 -105 -59 -105 7 0
8 -7 4 -17 -5 -10 -8 -31 -9 -48 -1 -29 -3 -30 -44 -30 -28 0 -47 5 -53 15 -5
9 -9 10 -9 3 0 -6 -6 -13 -13 -15 -10 -2 -11 -11 -5 -37 9 -33 9 -33 24 -12 8
11 24 21 35 21 17 0 18 -3 8 -22 -12 -22 -12 -22 15 -5 15 10 31 15 36 12 20
-12 10 -77 -17 -120 -39 -59 -83 -89 -123 -80 -27 6 -32 3 -45 -27 -9 -18 -19
-40 -24 -48 -5 -8 -14 -33 -21 -55 -7 -22 -28 -72 -46 -112 -19 -40 -34 -82
-34 -95 0 -13 -7 -32 -15 -42 -17 -23 -19 -36 -5 -36 5 0 12 11 16 25 3 13 14
27 23 30 24 7 63 80 60 112 -5 60 2 92 26 127 14 20 25 50 25 66 0 22 4 28 15
24 23 -9 18 -46 -10 -84 -21 -29 -25 -45 -25 -105 0 -39 -4 -75 -10 -81 -5 -5
-21 -32 -34 -59 -29 -55 -22 -75 24 -75 50 0 65 38 66 170 1 110 8 160 22 160
4 0 6 -48 5 -107 -1 -60 1 -134 4 -165 4 -53 7 -58 28 -58 33 0 36 10 20 56
-19 53 -19 94 0 94 19 0 20 26 1 33 -8 3 -21 25 -30 49 -14 36 -15 49 -5 73
l11 30 14 -30 c7 -16 13 -40 14 -53 0 -12 11 -45 25 -72 30 -60 31 -72 5 -95
-22 -20 -18 -35 9 -35 11 0 21 -9 24 -21 4 -13 12 -20 24 -17 30 5 29 74 -2
131 -14 27 -25 59 -25 72 0 13 -5 27 -10 30 -6 4 -9 19 -8 33 1 15 -1 33 -5
39 -4 6 0 18 8 26 19 20 19 33 -1 41 -22 8 -8 26 21 26 24 0 28 -7 39 -70 5
-26 14 -39 38 -50 30 -14 70 -60 52 -60 -5 0 -30 16 -56 35 -41 30 -48 40 -48
68 0 18 -7 42 -16 53 -14 18 -15 18 -4 -5 10 -18 9 -25 -1 -32 -11 -6 -10 -15
4 -44 14 -29 15 -40 6 -52 -10 -11 -7 -19 18 -42 31 -28 41 -54 47 -126 3 -36
6 -40 27 -37 13 2 26 6 28 7 4 5 -35 107 -56 148 -17 32 -4 37 15 6 9 -13 20
-19 32 -16 24 6 33 -18 17 -43 -15 -25 1 -55 29 -55 26 0 21 43 -11 111 -14
28 -25 54 -25 59 0 4 29 -24 65 -61 58 -62 64 -66 65 -44 0 34 -19 59 -83 109
-30 23 -58 53 -61 66 -5 20 -27 41 -85 82 -3 2 0 8 5 13 16 16 77 -33 113 -88
23 -37 43 -55 74 -67 23 -9 50 -24 60 -32 22 -21 22 -6 -2 33 -14 23 -34 37
-69 48 -38 13 -53 24 -62 47 -14 33 -64 79 -86 79 -22 0 -17 36 7 52 19 12 20
17 10 37 -7 13 -10 33 -7 45 7 27 38 27 141 2 111 -27 114 -27 158 -15 49 14
62 25 72 59 8 25 7 25 -13 6 -20 -17 -23 -17 -66 -1 -44 17 -46 17 -81 -5 -37
-23 -36 -23 -160 -3 l-50 9 39 6 c21 4 58 5 80 2 27 -4 55 -1 80 10 21 9 46
16 54 16 9 0 35 7 59 16 38 15 41 18 27 32 -15 14 -24 13 -98 -11 -88 -28
-114 -35 -193 -46 -79 -11 -73 11 6 27 36 7 85 16 109 19 31 4 47 12 61 32 11
15 38 36 61 46 26 12 37 22 31 28 -5 5 -7 16 -4 23 8 21 -21 17 -41 -5 -10
-10 -32 -22 -50 -25 -18 -4 -44 -18 -57 -32 -31 -34 -55 -46 -104 -55 -22 -4
-50 -10 -62 -12 -19 -5 -23 -2 -23 19 0 25 2 27 94 104 33 26 67 63 75 81 10
20 26 35 41 39 24 6 42 40 21 40 -6 0 -11 -5 -11 -10 0 -6 -24 -21 -54 -34
-46 -20 -57 -31 -74 -69 -13 -30 -34 -54 -67 -76 -26 -18 -49 -30 -52 -27 -10
9 19 46 47 61 16 8 41 35 55 59 14 25 42 54 61 65 28 17 34 26 34 56 0 55 -29
45 -69 -23z m-231 -607 c-7 -8 -16 -12 -21 -9 -13 8 -1 24 18 24 13 0 13 -3 3
-15z"/>
<path d="M790 1587 c0 -8 15 -31 33 -51 91 -105 114 -133 131 -159 31 -50 10
-40 -28 12 -19 28 -53 59 -74 70 -24 12 -44 32 -52 51 -15 37 -47 58 -56 36
-10 -26 40 -85 129 -152 76 -58 102 -84 81 -84 -7 0 -98 68 -130 97 -13 12
-47 29 -76 38 -63 18 -68 19 -68 2 0 -16 105 -81 158 -97 20 -7 56 -23 78 -36
51 -29 109 -36 109 -14 0 8 4 18 10 22 5 4 -2 11 -15 17 -14 5 -21 10 -17 10
5 1 -3 15 -17 32 -14 17 -26 35 -26 41 0 5 -22 33 -50 61 -27 29 -61 67 -76
85 -27 34 -44 41 -44 19z"/>
<path d="M1613 1460 c-7 -11 -30 -28 -50 -39 -21 -10 -47 -29 -58 -41 -11 -12
-38 -31 -60 -42 -45 -23 -75 -47 -75 -60 0 -5 12 0 26 11 15 12 38 21 52 21
14 0 41 15 65 36 22 20 64 47 94 61 44 20 54 29 51 46 -4 29 -30 33 -45 7z"/>
<path d="M625 1380 c-19 -30 100 -105 181 -114 79 -10 166 -35 159 -47 -10
-15 22 -10 35 6 16 20 17 19 -55 40 -33 9 -70 23 -82 31 -13 8 -58 25 -100 39
-43 13 -87 31 -98 39 -24 18 -32 19 -40 6z"/>
<path d="M580 1274 c0 -3 30 -19 67 -36 63 -28 73 -30 143 -24 41 3 80 7 85 8
6 0 26 -2 45 -5 l35 -7 -40 15 c-22 9 -64 18 -93 20 -30 3 -80 12 -112 20 -58
15 -130 20 -130 9z"/>
<path d="M1083 1228 c-13 -6 -23 -15 -23 -20 0 -5 8 -4 18 1 10 6 29 7 41 4
20 -5 20 -6 4 -19 -17 -12 -17 -13 1 -20 21 -8 37 11 34 41 -3 23 -41 30 -75
13z"/>
<path d="M577 1200 c-8 -29 22 -60 66 -67 20 -3 79 2 131 12 89 17 146 15 146
-4 0 -5 -8 -12 -17 -14 -11 -3 -6 -5 10 -6 37 -1 87 28 87 52 0 15 -3 16 -22
6 -16 -9 -34 -8 -75 1 -50 12 -58 12 -108 -9 -47 -20 -59 -21 -90 -11 -19 6
-37 16 -40 21 -4 5 -17 9 -31 9 -14 0 -27 7 -30 15 -8 21 -21 19 -27 -5z"/>
<path d="M1195 1140 c17 -19 17 -20 -1 -21 -10 -1 -25 -1 -33 0 -7 2 -10 -2
-7 -7 3 -5 19 -9 36 -10 25 -1 30 3 30 23 0 12 -7 26 -16 29 -26 10 -28 7 -9
-14z"/>
<path d="M1096 1135 c-8 -22 20 -30 38 -12 8 8 12 17 9 21 -12 12 -41 6 -47
-9z"/>
<path d="M807 1120 c-15 -5 -48 -11 -74 -15 -25 -3 -56 -11 -67 -18 -12 -6
-25 -12 -31 -13 -30 -4 -55 -18 -55 -30 0 -23 38 -31 104 -22 52 7 66 14 102
49 22 22 54 44 70 49 27 8 27 8 4 8 -14 0 -38 -3 -53 -8z"/>
<path d="M1454 1096 c31 -31 40 -35 107 -39 93 -7 148 -17 155 -28 11 -18 21
-8 22 21 1 34 -3 36 -108 46 -41 3 -95 13 -120 20 -25 8 -55 14 -68 14 -21 0
-21 -2 12 -34z"/>
<path d="M842 1073 c-38 -48 -94 -75 -137 -67 -25 4 -43 1 -61 -11 -19 -12
-29 -14 -39 -5 -11 9 -11 4 -3 -30 6 -23 17 -44 24 -47 19 -7 80 15 112 41 15
13 65 45 111 72 74 43 85 46 95 32 16 -22 46 -5 46 25 0 20 -5 22 -61 23 -58
1 -62 -1 -87 -33z"/>
<path d="M1164 1061 c5 -8 56 -3 56 5 0 2 -14 4 -31 4 -16 0 -28 -4 -25 -9z"/>
<path d="M1451 1052 c15 -9 51 -33 80 -53 44 -30 66 -38 120 -43 55 -5 68 -4
73 9 4 12 0 14 -20 9 -19 -5 -32 0 -52 19 -21 20 -40 26 -89 29 -47 3 -69 10
-86 26 -13 12 -30 22 -38 22 -8 0 -2 -8 12 -18z"/>
<path d="M1183 1043 c-13 -2 -23 -9 -23 -14 0 -14 24 -11 46 6 19 15 16 16
-23 8z"/>
<path d="M837 990 c-41 -28 -77 -57 -81 -65 -3 -8 -11 -15 -19 -15 -7 0 -24
-11 -37 -25 -15 -16 -30 -23 -42 -19 -21 6 -23 -4 -4 -29 12 -16 20 -17 53 -8
67 19 103 48 130 106 19 43 34 60 64 75 21 11 39 23 39 25 0 15 -37 -1 -103
-45z"/>
<path d="M980 1015 c-14 -7 -32 -16 -41 -18 -9 -3 -35 -34 -59 -69 -64 -94
-111 -138 -149 -138 -36 0 -38 -9 -13 -40 17 -21 20 -22 49 -7 36 19 80 68
127 140 36 58 79 97 105 97 13 0 12 -4 -5 -18 -11 -9 -32 -35 -47 -57 -48 -72
-91 -123 -130 -156 -43 -36 -47 -72 -10 -77 30 -4 97 82 119 153 10 30 30 68
46 85 37 41 61 88 54 106 -7 17 -14 17 -46 -1z"/>
<path d="M1404 1017 c21 -13 43 -35 79 -79 12 -14 31 -29 42 -32 13 -4 -2 18
-40 59 -36 39 -69 65 -81 64 -19 0 -19 0 0 -12z"/>
<path d="M1470 1015 c44 -63 114 -115 154 -115 9 0 22 -12 30 -27 11 -20 15
-23 16 -10 0 9 5 17 12 17 6 0 -14 16 -46 35 -32 19 -60 35 -63 35 -5 0 -61
39 -93 65 -24 20 -24 20 -10 0z"/>
<path d="M1040 955 c-5 -14 -21 -36 -35 -48 -19 -17 -27 -35 -32 -77 -5 -43
-13 -61 -39 -88 -17 -18 -37 -46 -44 -62 -7 -17 -20 -30 -29 -30 -12 -1 -11
-5 8 -20 29 -25 50 -25 58 -2 3 9 14 26 24 37 10 11 34 66 54 123 19 56 44
117 55 134 11 18 20 39 20 46 0 22 -30 12 -40 -13z"/>
<path d="M1616 837 c9 -20 21 -34 26 -31 10 6 -5 36 -27 54 -15 12 -14 9 1
-23z"/>
<path d="M1580 1700 c0 -5 5 -10 10 -10 6 0 10 5 10 10 0 6 -4 10 -10 10 -5 0
-10 -4 -10 -10z"/>
<path d="M1811 1176 c-8 -10 -9 -16 -1 -21 5 -3 13 1 16 10 9 22 -1 29 -15 11z"/>
<path d="M605 770 c-3 -5 1 -10 9 -10 9 0 16 5 16 10 0 6 -4 10 -9 10 -6 0
-13 -4 -16 -10z"/>
<path d="M572 753 c-6 -2 -10 -9 -6 -14 8 -14 21 -11 21 6 0 8 -1 15 -1 14 -1
0 -7 -3 -14 -6z"/>
<path d="M1720 810 c0 -5 5 -10 11 -10 5 0 7 5 4 10 -3 6 -8 10 -11 10 -2 0
-4 -4 -4 -10z"/>
<path d="M665 690 c-3 -5 1 -10 9 -10 9 0 16 5 16 10 0 6 -4 10 -9 10 -6 0
-13 -4 -16 -10z"/>
<path d="M1616 681 c-3 -5 1 -14 9 -21 12 -10 15 -10 15 3 0 19 -16 31 -24 18z"/>
<path d="M1565 570 c3 -5 10 -10 16 -10 5 0 9 5 9 10 0 6 -7 10 -16 10 -8 0
-12 -4 -9 -10z"/>
<path d="M1070 485 c7 -8 16 -15 21 -15 5 0 6 7 3 15 -4 8 -13 15 -21 15 -13
0 -13 -3 -3 -15z"/>
<path d="M6990 1250 l0 -340 35 0 35 0 0 89 c0 72 4 93 19 112 l19 23 56 -112
56 -112 40 0 c22 0 40 3 40 6 0 4 -31 64 -70 134 -38 70 -70 130 -70 134 0 3
29 48 65 100 36 52 65 96 65 98 0 2 -17 5 -38 6 l-38 3 -70 -117 -69 -116 -3
216 -2 216 -35 0 -35 0 0 -340z"/>
<path d="M6083 1480 c-19 -8 -23 -17 -23 -50 0 -39 -1 -40 -35 -40 -32 0 -35
-2 -35 -30 0 -28 3 -30 34 -30 l35 0 3 -190 c3 -181 4 -191 25 -212 18 -17 35
-22 75 -23 50 0 53 1 56 27 3 24 -1 27 -30 30 -51 5 -58 30 -58 211 l0 157 50
0 c49 0 50 1 50 30 0 29 -1 30 -50 30 l-50 0 0 50 c0 53 -5 57 -47 40z"/>
<path d="M7496 1394 c-3 -8 -2 -12 3 -9 6 3 12 -9 14 -27 l4 -33 1 37 c2 39
-12 59 -22 32z"/>
<path d="M7435 1390 c3 -5 8 -10 11 -10 2 0 4 5 4 10 0 6 -5 10 -11 10 -5 0
-7 -4 -4 -10z"/>
<path d="M4189 1367 c-55 -37 -82 -97 -87 -194 -5 -96 9 -164 44 -211 81 -106
227 -70 273 67 14 42 15 184 1 230 -32 114 -145 166 -231 108z m119 -42 c53
-38 69 -237 24 -323 -35 -69 -100 -64 -138 11 -19 35 -25 173 -11 238 15 73
75 108 125 74z"/>
<path d="M4610 1354 l-40 -36 0 31 c0 29 -2 31 -36 31 -33 0 -36 -2 -30 -22 3
-13 6 -163 6 -335 l0 -312 35 1 35 1 0 119 c0 65 2 118 4 118 3 0 17 -11 32
-25 57 -53 149 -20 194 70 22 44 25 63 25 155 0 90 -3 112 -24 153 -28 57 -70
87 -123 87 -30 0 -47 -8 -78 -36z m99 -34 c53 -28 71 -226 29 -310 -22 -43
-25 -45 -67 -45 -65 0 -85 31 -90 141 -4 108 5 166 30 198 22 28 64 35 98 16z"/>
<path d="M5009 1367 c-60 -40 -83 -97 -87 -212 -3 -94 -2 -104 25 -155 44 -86
124 -118 226 -89 31 8 38 14 35 32 -2 13 -9 21 -18 18 -36 -8 -111 -4 -133 8
-33 18 -57 62 -64 121 l-6 50 121 0 c106 0 121 2 126 18 8 25 -10 125 -29 162
-35 68 -131 91 -196 47z m117 -50 c21 -18 28 -35 32 -75 l5 -52 -87 0 c-62 0
-86 3 -86 13 0 32 24 92 45 113 30 30 57 30 91 1z"/>
<path d="M5443 1369 c-18 -12 -33 -25 -33 -30 0 -5 -4 -9 -10 -9 -5 0 -10 11
-10 25 0 22 -4 25 -36 25 l-37 0 7 -37 c3 -21 6 -127 6 -235 l0 -198 34 0 35
0 3 179 c3 164 5 182 24 208 16 21 31 29 62 31 35 3 43 -1 59 -24 15 -24 19
-55 21 -211 l4 -183 34 0 34 0 0 187 c0 167 -2 191 -20 228 -11 23 -32 47 -46
53 -38 18 -95 14 -131 -9z"/>
<path d="M5784 1371 c-46 -28 -64 -59 -64 -110 0 -46 6 -54 129 -162 48 -42
55 -85 20 -120 -19 -19 -29 -21 -84 -16 -51 5 -64 3 -69 -9 -10 -26 -7 -32 25
-43 47 -16 98 -13 146 8 50 23 73 63 73 127 0 42 -4 51 -43 88 -24 22 -62 56
-85 74 -31 25 -42 40 -42 61 0 46 22 66 72 65 24 0 49 -2 56 -5 8 -2 18 6 23
19 7 19 5 24 -17 32 -41 16 -106 12 -140 -9z"/>
<path d="M6343 1379 c-33 -9 -40 -23 -25 -46 5 -9 17 -9 48 -1 75 20 115 -6
129 -84 l7 -36 -49 -8 c-130 -19 -205 -111 -174 -214 15 -52 62 -90 109 -90
38 0 102 32 102 50 0 6 5 8 10 5 6 -3 10 -15 10 -26 0 -15 7 -19 33 -19 l32 0
-3 187 c-2 104 -8 200 -13 215 -20 51 -54 72 -122 75 -34 1 -77 -2 -94 -8z
m157 -281 c0 -114 -57 -177 -118 -131 -22 16 -28 29 -30 70 -4 75 40 119 126
122 21 1 22 -3 22 -61z"/>
<path d="M6768 1370 c-88 -47 -133 -167 -109 -296 20 -106 90 -173 181 -174
61 0 80 9 80 40 0 27 -2 27 -43 23 -57 -7 -99 15 -122 64 -40 83 -27 217 25
273 25 26 35 30 83 30 50 0 55 2 59 24 3 16 0 27 -9 30 -31 12 -110 4 -145
-14z"/>
</g>
</svg>
